<svg version="1.1" viewBox="0.0 0.0 921.5380577427821 218.9737532808399" fill="none" stroke="none" stroke-linecap="square" stroke-miterlimit="10" xmlns:xlink="http://www.w3.org/1999/xlink" xmlns="http://www.w3.org/2000/svg"><clipPath id="p.0"><path d="m0 0l921.5381 0l0 218.97375l-921.5381 0l0 -218.97375z" clip-rule="nonzero"/></clipPath><g clip-path="url(#p.0)"><path fill="#000000" fill-opacity="0.0" d="m0 0l921.5381 0l0 218.97375l-921.5381 0z" fill-rule="evenodd"/><path fill="#000000" fill-opacity="0.0" d="m79.538055 3.284777l108.91339 148.31496" fill-rule="evenodd"/><path stroke="#000000" stroke-width="1.0" stroke-linejoin="round" stroke-linecap="butt" d="m79.538055 3.284777l105.362045 143.47885" fill-rule="evenodd"/><path fill="#000000" stroke="#000000" stroke-width="1.0" stroke-linecap="butt" d="m183.56877 147.74127l4.0173798 2.6801453l-1.3547211 -4.635437z" fill-rule="evenodd"/><path fill="#000000" fill-opacity="0.0" d="m297.38434 3.284777l108.91336 148.31496" fill-rule="evenodd"/><path stroke="#000000" stroke-width="1.0" stroke-linejoin="round" stroke-linecap="butt" d="m297.38434 3.284777l105.362 143.47885" fill-rule="evenodd"/><path fill="#000000" stroke="#000000" stroke-width="1.0" stroke-linecap="butt" d="m401.41504 147.74127l4.0173645 2.6801453l-1.3547363 -4.635437z" fill-rule="evenodd"/><path fill="#000000" fill-opacity="0.0" d="m515.2306 3.284777l108.91339 148.31496" fill-rule="evenodd"/><path stroke="#000000" stroke-width="1.0" stroke-linejoin="round" stroke-linecap="butt" d="m515.2306 3.284777l105.36206 143.47885" fill-rule="evenodd"/><path fill="#000000" stroke="#000000" stroke-width="1.0" stroke-linecap="butt" d="m619.2613 147.74127l4.017395 2.6801453l-1.3547363 -4.635437z" fill-rule="evenodd"/><path fill="#000000" fill-opacity="0.0" d="m733.07684 3.284777l108.91339 148.31496" fill-rule="evenodd"/><path stroke="#000000" stroke-width="1.0" stroke-linejoin="round" stroke-linecap="butt" d="m733.07684 3.284777l105.36206 143.47885" fill-rule="evenodd"/><path fill="#000000" stroke="#000000" stroke-width="1.0" stroke-linecap="butt" d="m837.10754 147.74127l4.017395 2.6801453l-1.3547363 -4.635437z" fill-rule="evenodd"/><path fill="#ffffff" d="m6.9711285 21.738861l0 0c0 -10.191909 8.262176 -18.454084 18.454084 -18.454084l108.22569 0c4.8943176 0 9.588196 1.9442642 13.048996 5.405077c3.4608154 3.4608116 5.405075 8.15468 5.405075 13.049007l0 27.186317c0 10.19191 -8.2621765 18.454086 -18.454071 18.454086l-108.22569 0l0 0c-10.191909 0 -18.454084 -8.2621765 -18.454084 -18.454086z" fill-rule="evenodd"/><path stroke="#000000" stroke-width="1.0" stroke-linejoin="round" stroke-linecap="butt" d="m6.9711285 21.738861l0 0c0 -10.191909 8.262176 -18.454084 18.454084 -18.454084l108.22569 0c4.8943176 0 9.588196 1.9442642 13.048996 5.405077c3.4608154 3.4608116 5.405075 8.15468 5.405075 13.049007l0 27.186317c0 10.19191 -8.2621765 18.454086 -18.454071 18.454086l-108.22569 0l0 0c-10.191909 0 -18.454084 -8.2621765 -18.454084 -18.454086z" fill-rule="evenodd"/><path fill="#000000" d="m46.133842 24.34577l0 5.40625l-1.125 0l0 -13.265625l4.515625 0q2.078125 0 3.265625 1.0625q1.203125 1.046875 1.203125 2.90625q0 1.859375 -1.15625 2.875q-1.140625 1.015625 -3.328125 1.015625l-3.375 0zm0 -0.9375l3.390625 0q1.640625 0 2.484375 -0.765625q0.859375 -0.78125 0.859375 -2.171875q0 -1.375 -0.859375 -2.1875q-0.84375 -0.8125 -2.40625 -0.84375l-3.46875 0l0 5.96875zm14.658951 -2.578125q-0.34375 -0.0625 -0.734375 -0.0625q-1.015625 0 -1.71875 0.5625q-0.703125 0.5625 -1.015625 1.65625l0 6.765625l-1.078125 0l0 -9.859375l1.0625 0l0.015625 1.5625q0.875 -1.734375 2.78125 -1.734375q0.453125 0 0.71875 0.109375l-0.03125 1.0zm0.9378967 3.84375q0 -1.421875 0.546875 -2.546875q0.5625 -1.140625 1.5625 -1.765625q1.015625 -0.640625 2.28125 -0.640625q1.96875 0 3.1875 1.375q1.234375 1.375 1.234375 3.65625l0 0.234375q0 1.421875 -0.5625 2.5625q-0.546875 1.140625 -1.546875 1.765625q-1.0 0.625 -2.28125 0.625q-1.96875 0 -3.203125 -1.375q-1.21875 -1.390625 -1.21875 -3.671875l0 -0.21875zm1.09375 0.3125q0 1.765625 0.921875 2.90625q0.921875 1.125 2.40625 1.125q1.46875 0 2.375 -1.125q0.921875 -1.140625 0.921875 -3.0l0 -0.21875q0 -1.125 -0.421875 -2.0625q-0.40625 -0.9375 -1.171875 -1.453125q-0.75 -0.515625 -1.734375 -0.515625q-1.453125 0 -2.375 1.140625q-0.921875 1.140625 -0.921875 3.0l0 0.203125zm11.136093 -5.09375l0 11.03125q0 1.3749981 -0.65625 2.093748q-0.65625 0.71875 -1.921875 0.71875q-0.5 0 -0.96875 -0.171875l0.03125 -0.90625q0.390625 0.125 0.8125 0.125q1.625 0 1.625 -1.8749981l0 -11.015625l1.078125 0zm-0.53125 -3.59375q0.34375 0 0.546875 0.21875q0.203125 0.21875 0.203125 0.53125q0 0.3125 -0.203125 0.515625q-0.203125 0.203125 -0.546875 0.203125q-0.34375 0 -0.546875 -0.203125q-0.1875 -0.203125 -0.1875 -0.515625q0 -0.3125 0.1875 -0.53125q0.203125 -0.21875 0.546875 -0.21875zm7.42601 13.640625q-1.25 0 -2.265625 -0.625q-1.015625 -0.625 -1.59375 -1.71875q-0.5625 -1.109375 -0.5625 -2.484375l0 -0.390625q0 -1.421875 0.546875 -2.5625q0.5625 -1.140625 1.546875 -1.78125q0.984375 -0.65625 2.125 -0.65625q1.796875 0 2.84375 1.21875q1.0625 1.21875 1.0625 3.34375l0 0.609375l-7.03125 0l0 0.21875q0 1.671875 0.953125 2.796875q0.96875 1.109375 2.421875 1.109375q0.875 0 1.546875 -0.3125q0.671875 -0.328125 1.21875 -1.03125l0.6875 0.515625q-1.203125 1.75 -3.5 1.75zm-0.203125 -9.296875q-1.21875 0 -2.0625 0.90625q-0.84375 0.890625 -1.03125 2.421875l5.921875 0l0 -0.125q-0.046875 -1.421875 -0.8125 -2.3125q-0.765625 -0.890625 -2.015625 -0.890625zm9.669098 8.375q1.140625 0 1.90625 -0.640625q0.78125 -0.640625 0.84375 -1.671875l1.046875 0q-0.046875 0.90625 -0.578125 1.65625q-0.515625 0.734375 -1.375 1.15625q-0.859375 0.421875 -1.84375 0.421875q-1.9375 0 -3.078125 -1.34375q-1.125 -1.359375 -1.125 -3.640625l0 -0.328125q0 -1.453125 0.5 -2.5625q0.515625 -1.125 1.46875 -1.734375q0.953125 -0.609375 2.234375 -0.609375q1.609375 0 2.65625 0.96875q1.0625 0.953125 1.140625 2.53125l-1.046875 0q-0.078125 -1.15625 -0.84375 -1.859375q-0.75 -0.71875 -1.90625 -0.71875q-1.484375 0 -2.296875 1.0625q-0.8125 1.0625 -0.8125 2.984375l0 0.328125q0 1.890625 0.8125 2.953125q0.8125 1.046875 2.296875 1.046875zm7.6573944 -11.640625l0 2.515625l2.046875 0l0 0.890625l-2.046875 0l0 6.578125q0 0.8125 0.296875 1.21875q0.296875 0.390625 1.0 0.390625q0.265625 0 0.875 -0.078125l0.046875 0.890625q-0.421875 0.15625 -1.171875 0.15625q-1.109375 0 -1.625 -0.65625q-0.515625 -0.65625 -0.515625 -1.921875l0 -6.578125l-1.8125 0l0 -0.890625l1.8125 0l0 -2.515625l1.09375 0zm13.749329 12.375l-1.09375 0l0 -11.953125l-3.609375 1.34375l0 -1.03125l4.515625 -1.671875l0.1875 0l0 13.3125z" fill-rule="nonzero"/><path fill="#000000" d="m36.27952 45.564518l-6.187498 0l0 6.1875l-1.125 0l0 -13.265625l8.218748 0l0 0.953125l-7.093748 0l0 5.15625l6.187498 0l0 0.96875zm9.074875 4.9375q-0.984375 1.4375 -3.140625 1.4375q-1.578125 0 -2.40625 -0.921875q-0.8125 -0.921875 -0.828125 -2.703125l0 -6.421875l1.078125 0l0 6.28125q0 2.8125 2.28125 2.8125q2.359375 0 3.0 -1.953125l0 -7.140625l1.09375 0l0 9.859375l-1.0625 0l-0.015625 -1.25zm4.935684 -8.609375l0.046875 1.6875q0.546875 -0.90625 1.375 -1.375q0.828125 -0.484375 1.84375 -0.484375q1.578125 0 2.34375 0.890625q0.78125 0.890625 0.796875 2.671875l0 6.46875l-1.09375 0l0 -6.484375q0 -1.3125 -0.5625 -1.953125q-0.546875 -0.65625 -1.75 -0.65625q-1.015625 0 -1.796875 0.640625q-0.78125 0.625 -1.15625 1.703125l0 6.75l-1.078125 0l0 -9.859375l1.03125 0zm12.857559 9.125q1.140625 0 1.90625 -0.640625q0.78125 -0.640625 0.84375 -1.671875l1.046875 0q-0.046875 0.90625 -0.578125 1.65625q-0.515625 0.734375 -1.375 1.15625q-0.859375 0.421875 -1.84375 0.421875q-1.9375 0 -3.078125 -1.34375q-1.125 -1.359375 -1.125 -3.640625l0 -0.328125q0 -1.453125 0.5 -2.5625q0.515625 -1.125 1.46875 -1.734375q0.953125 -0.609375 2.234375 -0.609375q1.609375 0 2.65625 0.96875q1.0625 0.953125 1.140625 2.53125l-1.046875 0q-0.078125 -1.15625 -0.84375 -1.859375q-0.75 -0.71875 -1.90625 -0.71875q-1.484375 0 -2.296875 1.0625q-0.8125 1.0625 -0.8125 2.984375l0 0.328125q0 1.890625 0.8125 2.953125q0.8125 1.046875 2.296875 1.046875zm7.6573944 -11.640625l0 2.515625l2.046875 0l0 0.890625l-2.046875 0l0 6.578125q0 0.8125 0.296875 1.21875q0.296875 0.390625 1.0 0.390625q0.265625 0 0.875 -0.078125l0.046875 0.890625q-0.421875 0.15625 -1.171875 0.15625q-1.109375 0 -1.625 -0.65625q-0.515625 -0.65625 -0.515625 -1.921875l0 -6.578125l-1.8125 0l0 -0.890625l1.8125 0l0 -2.515625l1.09375 0zm5.525299 12.375l-1.09375 0l0 -9.859375l1.09375 0l0 9.859375zm-1.28125 -12.703125q0 -0.3125 0.203125 -0.53125q0.203125 -0.21875 0.546875 -0.21875q0.34375 0 0.546875 0.21875q0.203125 0.21875 0.203125 0.53125q0 0.3125 -0.203125 0.515625q-0.203125 0.203125 -0.546875 0.203125q-0.34375 0 -0.546875 -0.203125q-0.203125 -0.203125 -0.203125 -0.515625zm3.6343842 7.625q0 -1.421875 0.546875 -2.546875q0.5625 -1.140625 1.5625 -1.765625q1.015625 -0.640625 2.28125 -0.640625q1.96875 0 3.1875 1.375q1.234375 1.375 1.234375 3.65625l0 0.234375q0 1.421875 -0.5625 2.5625q-0.546875 1.140625 -1.546875 1.765625q-1.0 0.625 -2.28125 0.625q-1.96875 0 -3.203125 -1.375q-1.21875 -1.390625 -1.21875 -3.671875l0 -0.21875zm1.09375 0.3125q0 1.765625 0.921875 2.90625q0.921875 1.125 2.40625 1.125q1.46875 0 2.375 -1.125q0.921875 -1.140625 0.921875 -3.0l0 -0.21875q0 -1.125 -0.421875 -2.0625q-0.40625 -0.9375 -1.171875 -1.453125q-0.75 -0.515625 -1.734375 -0.515625q-1.453125 0 -2.375 1.140625q-0.921875 1.140625 -0.921875 3.0l0 0.203125zm10.995468 -5.09375l0.046875 1.6875q0.546875 -0.90625 1.375 -1.375q0.828125 -0.484375 1.84375 -0.484375q1.578125 0 2.34375 0.890625q0.78125 0.890625 0.796875 2.671875l0 6.46875l-1.09375 0l0 -6.484375q0 -1.3125 -0.5625 -1.953125q-0.546875 -0.65625 -1.75 -0.65625q-1.015625 0 -1.796875 0.640625q-0.78125 0.625 -1.15625 1.703125l0 6.75l-1.078125 0l0 -9.859375l1.03125 0zm15.435684 9.859375q-0.15625 -0.46875 -0.203125 -1.375q-0.578125 0.75 -1.46875 1.15625q-0.890625 0.40625 -1.875 0.40625q-1.421875 0 -2.3125 -0.796875q-0.875 -0.796875 -0.875 -2.0q0 -1.4375 1.203125 -2.28125q1.203125 -0.84375 3.34375 -0.84375l1.96875 0l0 -1.109375q0 -1.0625 -0.65625 -1.671875q-0.640625 -0.609375 -1.890625 -0.609375q-1.140625 0 -1.890625 0.59375q-0.75 0.578125 -0.75 1.40625l-1.09375 -0.015625q0 -1.171875 1.09375 -2.03125q1.09375 -0.859375 2.6875 -0.859375q1.65625 0 2.609375 0.828125q0.953125 0.8125 0.984375 2.28125l0 4.671875q0 1.4375 0.296875 2.140625l0 0.109375l-1.171875 0zm-3.421875 -0.78125q1.09375 0 1.953125 -0.53125q0.859375 -0.53125 1.25 -1.40625l0 -2.171875l-1.953125 0q-1.625 0.015625 -2.546875 0.59375q-0.921875 0.578125 -0.921875 1.59375q0 0.828125 0.609375 1.375q0.625 0.546875 1.609375 0.546875zm8.414993 0.78125l-1.09375 0l0 -14.0l1.09375 0l0 14.0zm4.181259 0l-1.09375 0l0 -9.859375l1.09375 0l0 9.859375zm-1.28125 -12.703125q0 -0.3125 0.203125 -0.53125q0.203125 -0.21875 0.546875 -0.21875q0.34375 0 0.546875 0.21875q0.203125 0.21875 0.203125 0.53125q0 0.3125 -0.203125 0.515625q-0.203125 0.203125 -0.546875 0.203125q-0.34375 0 -0.546875 -0.203125q-0.203125 -0.203125 -0.203125 -0.515625zm5.931259 0.328125l0 2.515625l2.046875 0l0 0.890625l-2.046875 0l0 6.578125q0 0.8125 0.296875 1.21875q0.296875 0.390625 1.0 0.390625q0.265625 0 0.875 -0.078125l0.046875 0.890625q-0.421875 0.15625 -1.171875 0.15625q-1.109375 0 -1.625 -0.65625q-0.515625 -0.65625 -0.515625 -1.921875l0 -6.578125l-1.8125 0l0 -0.890625l1.8125 0l0 -2.515625l1.09375 0zm7.431549 10.8125l2.8750076 -8.296875l1.171875 0l-4.2031326 11.53125l-0.21875 0.515625q-0.8125 1.796875 -2.5 1.796875q-0.390625 0 -0.84375 -0.125l-0.015625 -0.90625l0.578125 0.046875q0.796875 0 1.28125 -0.390625q0.5 -0.390625 0.859375 -1.359375l0.484375 -1.328125l-3.71875 -9.78125l1.1875 0l3.0625 8.296875z" fill-rule="nonzero"/><path fill="#ffffff" d="m224.8174 21.738861l0 0c0 -10.191909 8.2621765 -18.454084 18.454086 -18.454084l108.22568 0c4.894348 0 9.588196 1.9442642 13.049011 5.405077c3.4608154 3.4608116 5.4050903 8.15468 5.4050903 13.049007l0 27.186317c0 10.19191 -8.2621765 18.454086 -18.454102 18.454086l-108.22568 0l0 0c-10.19191 0 -18.454086 -8.2621765 -18.454086 -18.454086z" fill-rule="evenodd"/><path stroke="#000000" stroke-width="1.0" stroke-linejoin="round" stroke-linecap="butt" d="m224.8174 21.738861l0 0c0 -10.191909 8.2621765 -18.454084 18.454086 -18.454084l108.22568 0c4.894348 0 9.588196 1.9442642 13.049011 5.405077c3.4608154 3.4608116 5.4050903 8.15468 5.4050903 13.049007l0 27.186317c0 10.19191 -8.2621765 18.454086 -18.454102 18.454086l-108.22568 0l0 0c-10.19191 0 -18.454086 -8.2621765 -18.454086 -18.454086z" fill-rule="evenodd"/><path fill="#000000" d="m263.9801 24.34577l0 5.40625l-1.125 0l0 -13.265625l4.515625 0q2.078125 0 3.265625 1.0625q1.203125 1.046875 1.203125 2.90625q0 1.859375 -1.15625 2.875q-1.140625 1.015625 -3.328125 1.015625l-3.375 0zm0 -0.9375l3.390625 0q1.640625 0 2.484375 -0.765625q0.859375 -0.78125 0.859375 -2.171875q0 -1.375 -0.859375 -2.1875q-0.84375 -0.8125 -2.40625 -0.84375l-3.46875 0l0 5.96875zm14.658966 -2.578125q-0.34375 -0.0625 -0.734375 -0.0625q-1.015625 0 -1.71875 0.5625q-0.703125 0.5625 -1.015625 1.65625l0 6.765625l-1.078125 0l0 -9.859375l1.0625 0l0.015625 1.5625q0.875 -1.734375 2.78125 -1.734375q0.453125 0 0.71875 0.109375l-0.03125 1.0zm0.9378967 3.84375q0 -1.421875 0.546875 -2.546875q0.5625 -1.140625 1.5625 -1.765625q1.015625 -0.640625 2.28125 -0.640625q1.96875 0 3.1875 1.375q1.234375 1.375 1.234375 3.65625l0 0.234375q0 1.421875 -0.5625 2.5625q-0.546875 1.140625 -1.546875 1.765625q-1.0 0.625 -2.28125 0.625q-1.96875 0 -3.203125 -1.375q-1.21875 -1.390625 -1.21875 -3.671875l0 -0.21875zm1.09375 0.3125q0 1.765625 0.921875 2.90625q0.921875 1.125 2.40625 1.125q1.46875 0 2.375 -1.125q0.921875 -1.140625 0.921875 -3.0l0 -0.21875q0 -1.125 -0.421875 -2.0625q-0.40625 -0.9375 -1.171875 -1.453125q-0.75 -0.515625 -1.734375 -0.515625q-1.453125 0 -2.375 1.140625q-0.921875 1.140625 -0.921875 3.0l0 0.203125zm11.136078 -5.09375l0 11.03125q0 1.3749981 -0.65625 2.093748q-0.65625 0.71875 -1.921875 0.71875q-0.5 0 -0.96875 -0.171875l0.03125 -0.90625q0.390625 0.125 0.8125 0.125q1.625 0 1.625 -1.8749981l0 -11.015625l1.078125 0zm-0.53125 -3.59375q0.34375 0 0.546875 0.21875q0.203125 0.21875 0.203125 0.53125q0 0.3125 -0.203125 0.515625q-0.203125 0.203125 -0.546875 0.203125q-0.34375 0 -0.546875 -0.203125q-0.1875 -0.203125 -0.1875 -0.515625q0 -0.3125 0.1875 -0.53125q0.203125 -0.21875 0.546875 -0.21875zm7.4260254 13.640625q-1.25 0 -2.265625 -0.625q-1.015625 -0.625 -1.59375 -1.71875q-0.5625 -1.109375 -0.5625 -2.484375l0 -0.390625q0 -1.421875 0.546875 -2.5625q0.5625 -1.140625 1.546875 -1.78125q0.984375 -0.65625 2.125 -0.65625q1.796875 0 2.84375 1.21875q1.0625 1.21875 1.0625 3.34375l0 0.609375l-7.03125 0l0 0.21875q0 1.671875 0.953125 2.796875q0.96875 1.109375 2.421875 1.109375q0.875 0 1.546875 -0.3125q0.671875 -0.328125 1.21875 -1.03125l0.6875 0.515625q-1.203125 1.75 -3.5 1.75zm-0.203125 -9.296875q-1.21875 0 -2.0625 0.90625q-0.84375 0.890625 -1.03125 2.421875l5.921875 0l0 -0.125q-0.046875 -1.421875 -0.8125 -2.3125q-0.765625 -0.890625 -2.015625 -0.890625zm9.669098 8.375q1.140625 0 1.90625 -0.640625q0.78125 -0.640625 0.84375 -1.671875l1.046875 0q-0.046875 0.90625 -0.578125 1.65625q-0.515625 0.734375 -1.375 1.15625q-0.859375 0.421875 -1.84375 0.421875q-1.9375 0 -3.078125 -1.34375q-1.125 -1.359375 -1.125 -3.640625l0 -0.328125q0 -1.453125 0.5 -2.5625q0.515625 -1.125 1.46875 -1.734375q0.953125 -0.609375 2.234375 -0.609375q1.609375 0 2.65625 0.96875q1.0625 0.953125 1.140625 2.53125l-1.046875 0q-0.078125 -1.15625 -0.84375 -1.859375q-0.75 -0.71875 -1.90625 -0.71875q-1.484375 0 -2.296875 1.0625q-0.8125 1.0625 -0.8125 2.984375l0 0.328125q0 1.890625 0.8125 2.953125q0.8125 1.046875 2.296875 1.046875zm7.657379 -11.640625l0 2.515625l2.046875 0l0 0.890625l-2.046875 0l0 6.578125q0 0.8125 0.296875 1.21875q0.296875 0.390625 1.0 0.390625q0.265625 0 0.875 -0.078125l0.046875 0.890625q-0.421875 0.15625 -1.171875 0.15625q-1.109375 0 -1.625 -0.65625q-0.515625 -0.65625 -0.515625 -1.921875l0 -6.578125l-1.8125 0l0 -0.890625l1.8125 0l0 -2.515625l1.09375 0zm16.983704 12.375l-8.3125 0l0 -0.84375l4.546875 -5.15625q1.125 -1.296875 1.5625 -2.140625q0.4375 -0.84375 0.4375 -1.65625q0 -1.25 -0.734375 -1.984375q-0.734375 -0.734375 -2.03125 -0.734375q-1.34375 0 -2.171875 0.859375q-0.8125 0.859375 -0.8125 2.21875l-1.09375 0q0 -1.125 0.5 -2.03125q0.515625 -0.921875 1.4375 -1.453125q0.9375 -0.53125 2.140625 -0.53125q1.8125 0 2.84375 0.96875q1.03125 0.953125 1.03125 2.59375q0 0.9375 -0.578125 2.046875q-0.578125 1.09375 -2.046875 2.75l-3.6875 4.171875l6.96875 0l0 0.921875z" fill-rule="nonzero"/><path fill="#000000" d="m254.1258 45.564518l-6.1875 0l0 6.1875l-1.125 0l0 -13.265625l8.21875 0l0 0.953125l-7.09375 0l0 5.15625l6.1875 0l0 0.96875zm9.07486 4.9375q-0.984375 1.4375 -3.140625 1.4375q-1.578125 0 -2.40625 -0.921875q-0.8125 -0.921875 -0.828125 -2.703125l0 -6.421875l1.078125 0l0 6.28125q0 2.8125 2.28125 2.8125q2.359375 0 3.0 -1.953125l0 -7.140625l1.09375 0l0 9.859375l-1.0625 0l-0.015625 -1.25zm4.9356995 -8.609375l0.046875 1.6875q0.546875 -0.90625 1.375 -1.375q0.828125 -0.484375 1.84375 -0.484375q1.578125 0 2.34375 0.890625q0.78125 0.890625 0.796875 2.671875l0 6.46875l-1.09375 0l0 -6.484375q0 -1.3125 -0.5625 -1.953125q-0.546875 -0.65625 -1.75 -0.65625q-1.015625 0 -1.796875 0.640625q-0.78125 0.625 -1.15625 1.703125l0 6.75l-1.078125 0l0 -9.859375l1.03125 0zm12.857544 9.125q1.140625 0 1.90625 -0.640625q0.78125 -0.640625 0.84375 -1.671875l1.046875 0q-0.046875 0.90625 -0.578125 1.65625q-0.515625 0.734375 -1.375 1.15625q-0.859375 0.421875 -1.84375 0.421875q-1.9375 0 -3.078125 -1.34375q-1.125 -1.359375 -1.125 -3.640625l0 -0.328125q0 -1.453125 0.5 -2.5625q0.515625 -1.125 1.46875 -1.734375q0.953125 -0.609375 2.234375 -0.609375q1.609375 0 2.65625 0.96875q1.0625 0.953125 1.140625 2.53125l-1.046875 0q-0.078125 -1.15625 -0.84375 -1.859375q-0.75 -0.71875 -1.90625 -0.71875q-1.484375 0 -2.296875 1.0625q-0.8125 1.0625 -0.8125 2.984375l0 0.328125q0 1.890625 0.8125 2.953125q0.8125 1.046875 2.296875 1.046875zm7.6574097 -11.640625l0 2.515625l2.046875 0l0 0.890625l-2.046875 0l0 6.578125q0 0.8125 0.296875 1.21875q0.296875 0.390625 1.0 0.390625q0.265625 0 0.875 -0.078125l0.046875 0.890625q-0.421875 0.15625 -1.171875 0.15625q-1.109375 0 -1.625 -0.65625q-0.515625 -0.65625 -0.515625 -1.921875l0 -6.578125l-1.8125 0l0 -0.890625l1.8125 0l0 -2.515625l1.09375 0zm5.525299 12.375l-1.09375 0l0 -9.859375l1.09375 0l0 9.859375zm-1.28125 -12.703125q0 -0.3125 0.203125 -0.53125q0.203125 -0.21875 0.546875 -0.21875q0.34375 0 0.546875 0.21875q0.203125 0.21875 0.203125 0.53125q0 0.3125 -0.203125 0.515625q-0.203125 0.203125 -0.546875 0.203125q-0.34375 0 -0.546875 -0.203125q-0.203125 -0.203125 -0.203125 -0.515625zm3.634369 7.625q0 -1.421875 0.546875 -2.546875q0.5625 -1.140625 1.5625 -1.765625q1.015625 -0.640625 2.28125 -0.640625q1.96875 0 3.1875 1.375q1.234375 1.375 1.234375 3.65625l0 0.234375q0 1.421875 -0.5625 2.5625q-0.546875 1.140625 -1.546875 1.765625q-1.0 0.625 -2.28125 0.625q-1.96875 0 -3.203125 -1.375q-1.21875 -1.390625 -1.21875 -3.671875l0 -0.21875zm1.09375 0.3125q0 1.765625 0.921875 2.90625q0.921875 1.125 2.40625 1.125q1.46875 0 2.375 -1.125q0.921875 -1.140625 0.921875 -3.0l0 -0.21875q0 -1.125 -0.421875 -2.0625q-0.40625 -0.9375 -1.171875 -1.453125q-0.75 -0.515625 -1.734375 -0.515625q-1.453125 0 -2.375 1.140625q-0.921875 1.140625 -0.921875 3.0l0 0.203125zm10.995483 -5.09375l0.046875 1.6875q0.546875 -0.90625 1.375 -1.375q0.828125 -0.484375 1.84375 -0.484375q1.578125 0 2.34375 0.890625q0.78125 0.890625 0.796875 2.671875l0 6.46875l-1.09375 0l0 -6.484375q0 -1.3125 -0.5625 -1.953125q-0.546875 -0.65625 -1.75 -0.65625q-1.015625 0 -1.796875 0.640625q-0.78125 0.625 -1.15625 1.703125l0 6.75l-1.078125 0l0 -9.859375l1.03125 0zm15.435669 9.859375q-0.15625 -0.46875 -0.203125 -1.375q-0.578125 0.75 -1.46875 1.15625q-0.890625 0.40625 -1.875 0.40625q-1.421875 0 -2.3125 -0.796875q-0.875 -0.796875 -0.875 -2.0q0 -1.4375 1.203125 -2.28125q1.203125 -0.84375 3.34375 -0.84375l1.96875 0l0 -1.109375q0 -1.0625 -0.65625 -1.671875q-0.640625 -0.609375 -1.890625 -0.609375q-1.140625 0 -1.890625 0.59375q-0.75 0.578125 -0.75 1.40625l-1.09375 -0.015625q0 -1.171875 1.09375 -2.03125q1.09375 -0.859375 2.6875 -0.859375q1.65625 0 2.609375 0.828125q0.953125 0.8125 0.984375 2.28125l0 4.671875q0 1.4375 0.296875 2.140625l0 0.109375l-1.171875 0zm-3.421875 -0.78125q1.09375 0 1.953125 -0.53125q0.859375 -0.53125 1.25 -1.40625l0 -2.171875l-1.953125 0q-1.625 0.015625 -2.546875 0.59375q-0.921875 0.578125 -0.921875 1.59375q0 0.828125 0.609375 1.375q0.625 0.546875 1.609375 0.546875zm8.415009 0.78125l-1.09375 0l0 -14.0l1.09375 0l0 14.0zm4.181244 0l-1.09375 0l0 -9.859375l1.09375 0l0 9.859375zm-1.28125 -12.703125q0 -0.3125 0.203125 -0.53125q0.203125 -0.21875 0.546875 -0.21875q0.34375 0 0.546875 0.21875q0.203125 0.21875 0.203125 0.53125q0 0.3125 -0.203125 0.515625q-0.203125 0.203125 -0.546875 0.203125q-0.34375 0 -0.546875 -0.203125q-0.203125 -0.203125 -0.203125 -0.515625zm5.9312744 0.328125l0 2.515625l2.046875 0l0 0.890625l-2.046875 0l0 6.578125q0 0.8125 0.296875 1.21875q0.296875 0.390625 1.0 0.390625q0.265625 0 0.875 -0.078125l0.046875 0.890625q-0.421875 0.15625 -1.171875 0.15625q-1.109375 0 -1.625 -0.65625q-0.515625 -0.65625 -0.515625 -1.921875l0 -6.578125l-1.8125 0l0 -0.890625l1.8125 0l0 -2.515625l1.09375 0zm7.431549 10.8125l2.875 -8.296875l1.171875 0l-4.203125 11.53125l-0.21875 0.515625q-0.8125 1.796875 -2.5 1.796875q-0.390625 0 -0.84375 -0.125l-0.015625 -0.90625l0.578125 0.046875q0.796875 0 1.28125 -0.390625q0.5 -0.390625 0.859375 -1.359375l0.484375 -1.328125l-3.71875 -9.78125l1.1875 0l3.0625 8.296875z" fill-rule="nonzero"/><path fill="#ffffff" d="m442.66367 21.738861l0 0c0 -10.191909 8.2621765 -18.454084 18.454071 -18.454084l108.22571 0c4.894348 0 9.588196 1.9442642 13.049011 5.405077c3.4608154 3.4608116 5.4050903 8.15468 5.4050903 13.049007l0 27.186317c0 10.19191 -8.262207 18.454086 -18.454102 18.454086l-108.22571 0l0 0c-10.191895 0 -18.454071 -8.2621765 -18.454071 -18.454086z" fill-rule="evenodd"/><path stroke="#000000" stroke-width="1.0" stroke-linejoin="round" stroke-linecap="butt" d="m442.66367 21.738861l0 0c0 -10.191909 8.2621765 -18.454084 18.454071 -18.454084l108.22571 0c4.894348 0 9.588196 1.9442642 13.049011 5.405077c3.4608154 3.4608116 5.4050903 8.15468 5.4050903 13.049007l0 27.186317c0 10.19191 -8.262207 18.454086 -18.454102 18.454086l-108.22571 0l0 0c-10.191895 0 -18.454071 -8.2621765 -18.454071 -18.454086z" fill-rule="evenodd"/><path fill="#000000" d="m481.8264 24.34577l0 5.40625l-1.125 0l0 -13.265625l4.515625 0q2.078125 0 3.265625 1.0625q1.203125 1.046875 1.203125 2.90625q0 1.859375 -1.15625 2.875q-1.140625 1.015625 -3.328125 1.015625l-3.375 0zm0 -0.9375l3.390625 0q1.640625 0 2.484375 -0.765625q0.859375 -0.78125 0.859375 -2.171875q0 -1.375 -0.859375 -2.1875q-0.84375 -0.8125 -2.40625 -0.84375l-3.46875 0l0 5.96875zm14.658936 -2.578125q-0.34375 -0.0625 -0.734375 -0.0625q-1.015625 0 -1.71875 0.5625q-0.703125 0.5625 -1.015625 1.65625l0 6.765625l-1.078125 0l0 -9.859375l1.0625 0l0.015625 1.5625q0.875 -1.734375 2.78125 -1.734375q0.453125 0 0.71875 0.109375l-0.03125 1.0zm0.9378967 3.84375q0 -1.421875 0.546875 -2.546875q0.5625 -1.140625 1.5625 -1.765625q1.015625 -0.640625 2.28125 -0.640625q1.96875 0 3.1875 1.375q1.234375 1.375 1.234375 3.65625l0 0.234375q0 1.421875 -0.5625 2.5625q-0.546875 1.140625 -1.546875 1.765625q-1.0 0.625 -2.28125 0.625q-1.96875 0 -3.203125 -1.375q-1.21875 -1.390625 -1.21875 -3.671875l0 -0.21875zm1.09375 0.3125q0 1.765625 0.921875 2.90625q0.921875 1.125 2.40625 1.125q1.46875 0 2.375 -1.125q0.921875 -1.140625 0.921875 -3.0l0 -0.21875q0 -1.125 -0.421875 -2.0625q-0.40625 -0.9375 -1.171875 -1.453125q-0.75 -0.515625 -1.734375 -0.515625q-1.453125 0 -2.375 1.140625q-0.921875 1.140625 -0.921875 3.0l0 0.203125zm11.136108 -5.09375l0 11.03125q0 1.3749981 -0.65625 2.093748q-0.65625 0.71875 -1.921875 0.71875q-0.5 0 -0.96875 -0.171875l0.03125 -0.90625q0.390625 0.125 0.8125 0.125q1.625 0 1.625 -1.8749981l0 -11.015625l1.078125 0zm-0.53125 -3.59375q0.34375 0 0.546875 0.21875q0.203125 0.21875 0.203125 0.53125q0 0.3125 -0.203125 0.515625q-0.203125 0.203125 -0.546875 0.203125q-0.34375 0 -0.546875 -0.203125q-0.1875 -0.203125 -0.1875 -0.515625q0 -0.3125 0.1875 -0.53125q0.203125 -0.21875 0.546875 -0.21875zm7.4260254 13.640625q-1.25 0 -2.265625 -0.625q-1.015625 -0.625 -1.59375 -1.71875q-0.5625 -1.109375 -0.5625 -2.484375l0 -0.390625q0 -1.421875 0.546875 -2.5625q0.5625 -1.140625 1.546875 -1.78125q0.984375 -0.65625 2.125 -0.65625q1.796875 0 2.84375 1.21875q1.0625 1.21875 1.0625 3.34375l0 0.609375l-7.03125 0l0 0.21875q0 1.671875 0.953125 2.796875q0.96875 1.109375 2.421875 1.109375q0.875 0 1.546875 -0.3125q0.671875 -0.328125 1.21875 -1.03125l0.6875 0.515625q-1.203125 1.75 -3.5 1.75zm-0.203125 -9.296875q-1.21875 0 -2.0625 0.90625q-0.84375 0.890625 -1.03125 2.421875l5.921875 0l0 -0.125q-0.046875 -1.421875 -0.8125 -2.3125q-0.765625 -0.890625 -2.015625 -0.890625zm9.669067 8.375q1.140625 0 1.90625 -0.640625q0.78125 -0.640625 0.84375 -1.671875l1.046875 0q-0.046875 0.90625 -0.578125 1.65625q-0.515625 0.734375 -1.375 1.15625q-0.859375 0.421875 -1.84375 0.421875q-1.9375 0 -3.078125 -1.34375q-1.125 -1.359375 -1.125 -3.640625l0 -0.328125q0 -1.453125 0.5 -2.5625q0.515625 -1.125 1.46875 -1.734375q0.953125 -0.609375 2.234375 -0.609375q1.609375 0 2.65625 0.96875q1.0625 0.953125 1.140625 2.53125l-1.046875 0q-0.078125 -1.15625 -0.84375 -1.859375q-0.75 -0.71875 -1.90625 -0.71875q-1.484375 0 -2.296875 1.0625q-0.8125 1.0625 -0.8125 2.984375l0 0.328125q0 1.890625 0.8125 2.953125q0.8125 1.046875 2.296875 1.046875zm7.6574097 -11.640625l0 2.515625l2.046875 0l0 0.890625l-2.046875 0l0 6.578125q0 0.8125 0.296875 1.21875q0.296875 0.390625 1.0 0.390625q0.265625 0 0.875 -0.078125l0.046875 0.890625q-0.421875 0.15625 -1.171875 0.15625q-1.109375 0 -1.625 -0.65625q-0.515625 -0.65625 -0.515625 -1.921875l0 -6.578125l-1.8125 0l0 -0.890625l1.8125 0l0 -2.515625l1.09375 0zm11.093079 5.15625l1.125 0q0.9375 0 1.640625 -0.328125q0.703125 -0.34375 1.0625 -0.921875q0.375 -0.578125 0.375 -1.328125q0 -1.28125 -0.71875 -2.0q-0.71875 -0.71875 -2.0625 -0.71875q-1.28125 0 -2.09375 0.75q-0.8125 0.75 -0.8125 1.984375l-1.09375 0q0 -1.03125 0.515625 -1.875q0.515625 -0.859375 1.4375 -1.328125q0.921875 -0.46875 2.046875 -0.46875q1.796875 0 2.828125 0.984375q1.046875 0.984375 1.046875 2.703125q0 0.953125 -0.609375 1.765625q-0.59375 0.796875 -1.65625 1.203125q1.234375 0.34375 1.875 1.1875q0.640625 0.84375 0.640625 2.015625q0 1.703125 -1.109375 2.75q-1.109375 1.03125 -2.96875 1.03125q-1.1875 0 -2.171875 -0.46875q-0.984375 -0.484375 -1.53125 -1.328125q-0.546875 -0.859375 -0.546875 -1.984375l1.09375 0q0 1.265625 0.875 2.0625q0.890625 0.796875 2.28125 0.796875q1.40625 0 2.1875 -0.71875q0.796875 -0.734375 0.796875 -2.109375q0 -1.328125 -0.859375 -2.03125q-0.84375 -0.703125 -2.5 -0.703125l-1.09375 0l0 -0.921875z" fill-rule="nonzero"/><path fill="#000000" d="m471.97205 45.564518l-6.1875 0l0 6.1875l-1.125 0l0 -13.265625l8.21875 0l0 0.953125l-7.09375 0l0 5.15625l6.1875 0l0 0.96875zm9.07489 4.9375q-0.984375 1.4375 -3.140625 1.4375q-1.578125 0 -2.40625 -0.921875q-0.8125 -0.921875 -0.828125 -2.703125l0 -6.421875l1.078125 0l0 6.28125q0 2.8125 2.28125 2.8125q2.359375 0 3.0 -1.953125l0 -7.140625l1.09375 0l0 9.859375l-1.0625 0l-0.015625 -1.25zm4.935669 -8.609375l0.046875 1.6875q0.546875 -0.90625 1.375 -1.375q0.828125 -0.484375 1.84375 -0.484375q1.578125 0 2.34375 0.890625q0.78125 0.890625 0.796875 2.671875l0 6.46875l-1.09375 0l0 -6.484375q0 -1.3125 -0.5625 -1.953125q-0.546875 -0.65625 -1.75 -0.65625q-1.015625 0 -1.796875 0.640625q-0.78125 0.625 -1.15625 1.703125l0 6.75l-1.078125 0l0 -9.859375l1.03125 0zm12.857574 9.125q1.140625 0 1.90625 -0.640625q0.78125 -0.640625 0.84375 -1.671875l1.046875 0q-0.046875 0.90625 -0.578125 1.65625q-0.515625 0.734375 -1.375 1.15625q-0.859375 0.421875 -1.84375 0.421875q-1.9375 0 -3.078125 -1.34375q-1.125 -1.359375 -1.125 -3.640625l0 -0.328125q0 -1.453125 0.5 -2.5625q0.515625 -1.125 1.46875 -1.734375q0.953125 -0.609375 2.234375 -0.609375q1.609375 0 2.65625 0.96875q1.0625 0.953125 1.140625 2.53125l-1.046875 0q-0.078125 -1.15625 -0.84375 -1.859375q-0.75 -0.71875 -1.90625 -0.71875q-1.484375 0 -2.296875 1.0625q-0.8125 1.0625 -0.8125 2.984375l0 0.328125q0 1.890625 0.8125 2.953125q0.8125 1.046875 2.296875 1.046875zm7.657379 -11.640625l0 2.515625l2.046875 0l0 0.890625l-2.046875 0l0 6.578125q0 0.8125 0.296875 1.21875q0.296875 0.390625 1.0 0.390625q0.265625 0 0.875 -0.078125l0.046875 0.890625q-0.421875 0.15625 -1.171875 0.15625q-1.109375 0 -1.625 -0.65625q-0.515625 -0.65625 -0.515625 -1.921875l0 -6.578125l-1.8125 0l0 -0.890625l1.8125 0l0 -2.515625l1.09375 0zm5.5253296 12.375l-1.0937805 0l0 -9.859375l1.0937805 0l0 9.859375zm-1.2812805 -12.703125q0 -0.3125 0.203125 -0.53125q0.203125 -0.21875 0.546875 -0.21875q0.34375 0 0.5469055 0.21875q0.203125 0.21875 0.203125 0.53125q0 0.3125 -0.203125 0.515625q-0.20315552 0.203125 -0.5469055 0.203125q-0.34375 0 -0.546875 -0.203125q-0.203125 -0.203125 -0.203125 -0.515625zm3.634369 7.625q0 -1.421875 0.546875 -2.546875q0.5625 -1.140625 1.5625 -1.765625q1.015625 -0.640625 2.28125 -0.640625q1.96875 0 3.1875 1.375q1.234375 1.375 1.234375 3.65625l0 0.234375q0 1.421875 -0.5625 2.5625q-0.546875 1.140625 -1.546875 1.765625q-1.0 0.625 -2.28125 0.625q-1.96875 0 -3.203125 -1.375q-1.21875 -1.390625 -1.21875 -3.671875l0 -0.21875zm1.09375 0.3125q0 1.765625 0.921875 2.90625q0.921875 1.125 2.40625 1.125q1.46875 0 2.375 -1.125q0.921875 -1.140625 0.921875 -3.0l0 -0.21875q0 -1.125 -0.421875 -2.0625q-0.40625 -0.9375 -1.171875 -1.453125q-0.75 -0.515625 -1.734375 -0.515625q-1.453125 0 -2.375 1.140625q-0.921875 1.140625 -0.921875 3.0l0 0.203125zm10.995483 -5.09375l0.046875 1.6875q0.546875 -0.90625 1.375 -1.375q0.828125 -0.484375 1.84375 -0.484375q1.578125 0 2.34375 0.890625q0.78125 0.890625 0.796875 2.671875l0 6.46875l-1.09375 0l0 -6.484375q0 -1.3125 -0.5625 -1.953125q-0.546875 -0.65625 -1.75 -0.65625q-1.015625 0 -1.796875 0.640625q-0.78125 0.625 -1.15625 1.703125l0 6.75l-1.078125 0l0 -9.859375l1.03125 0zm15.435669 9.859375q-0.15625 -0.46875 -0.203125 -1.375q-0.578125 0.75 -1.46875 1.15625q-0.890625 0.40625 -1.875 0.40625q-1.421875 0 -2.3125 -0.796875q-0.875 -0.796875 -0.875 -2.0q0 -1.4375 1.203125 -2.28125q1.203125 -0.84375 3.34375 -0.84375l1.96875 0l0 -1.109375q0 -1.0625 -0.65625 -1.671875q-0.640625 -0.609375 -1.890625 -0.609375q-1.140625 0 -1.890625 0.59375q-0.75 0.578125 -0.75 1.40625l-1.09375 -0.015625q0 -1.171875 1.09375 -2.03125q1.09375 -0.859375 2.6875 -0.859375q1.65625 0 2.609375 0.828125q0.953125 0.8125 0.984375 2.28125l0 4.671875q0 1.4375 0.296875 2.140625l0 0.109375l-1.171875 0zm-3.421875 -0.78125q1.09375 0 1.953125 -0.53125q0.859375 -0.53125 1.25 -1.40625l0 -2.171875l-1.953125 0q-1.625 0.015625 -2.546875 0.59375q-0.921875 0.578125 -0.921875 1.59375q0 0.828125 0.609375 1.375q0.625 0.546875 1.609375 0.546875zm8.415039 0.78125l-1.09375 0l0 -14.0l1.09375 0l0 14.0zm4.1812134 0l-1.09375 0l0 -9.859375l1.09375 0l0 9.859375zm-1.28125 -12.703125q0 -0.3125 0.203125 -0.53125q0.203125 -0.21875 0.546875 -0.21875q0.34375 0 0.546875 0.21875q0.203125 0.21875 0.203125 0.53125q0 0.3125 -0.203125 0.515625q-0.203125 0.203125 -0.546875 0.203125q-0.34375 0 -0.546875 -0.203125q-0.203125 -0.203125 -0.203125 -0.515625zm5.9312744 0.328125l0 2.515625l2.046875 0l0 0.890625l-2.046875 0l0 6.578125q0 0.8125 0.296875 1.21875q0.296875 0.390625 1.0 0.390625q0.265625 0 0.875 -0.078125l0.046875 0.890625q-0.421875 0.15625 -1.171875 0.15625q-1.109375 0 -1.625 -0.65625q-0.515625 -0.65625 -0.515625 -1.921875l0 -6.578125l-1.8125 0l0 -0.890625l1.8125 0l0 -2.515625l1.09375 0zm7.4315796 10.8125l2.875 -8.296875l1.171875 0l-4.203125 11.53125l-0.21875 0.515625q-0.8125 1.796875 -2.5 1.796875q-0.390625 0 -0.84375 -0.125l-0.015625 -0.90625l0.578125 0.046875q0.796875 0 1.28125 -0.390625q0.5 -0.390625 0.859375 -1.359375l0.484375 -1.328125l-3.71875 -9.78125l1.1875 0l3.0625 8.296875z" fill-rule="nonzero"/><path fill="#ffffff" d="m660.50995 21.738861l0 0c0 -10.191909 8.262146 -18.454084 18.454102 -18.454084l108.22565 0c4.894348 0 9.588196 1.9442642 13.049011 5.405077c3.4608154 3.4608116 5.4050903 8.15468 5.4050903 13.049007l0 27.186317c0 10.19191 -8.262207 18.454086 -18.454102 18.454086l-108.22565 0l0 0c-10.191956 0 -18.454102 -8.2621765 -18.454102 -18.454086z" fill-rule="evenodd"/><path stroke="#000000" stroke-width="1.0" stroke-linejoin="round" stroke-linecap="butt" d="m660.50995 21.738861l0 0c0 -10.191909 8.262146 -18.454084 18.454102 -18.454084l108.22565 0c4.894348 0 9.588196 1.9442642 13.049011 5.405077c3.4608154 3.4608116 5.4050903 8.15468 5.4050903 13.049007l0 27.186317c0 10.19191 -8.262207 18.454086 -18.454102 18.454086l-108.22565 0l0 0c-10.191956 0 -18.454102 -8.2621765 -18.454102 -18.454086z" fill-rule="evenodd"/><path fill="#000000" d="m699.67267 24.34577l0 5.40625l-1.125 0l0 -13.265625l4.515625 0q2.078125 0 3.265625 1.0625q1.203125 1.046875 1.203125 2.90625q0 1.859375 -1.15625 2.875q-1.140625 1.015625 -3.328125 1.015625l-3.375 0zm0 -0.9375l3.390625 0q1.640625 0 2.484375 -0.765625q0.859375 -0.78125 0.859375 -2.171875q0 -1.375 -0.859375 -2.1875q-0.84375 -0.8125 -2.40625 -0.84375l-3.46875 0l0 5.96875zm14.658936 -2.578125q-0.34375 -0.0625 -0.734375 -0.0625q-1.015625 0 -1.71875 0.5625q-0.703125 0.5625 -1.015625 1.65625l0 6.765625l-1.078125 0l0 -9.859375l1.0625 0l0.015625 1.5625q0.875 -1.734375 2.78125 -1.734375q0.453125 0 0.71875 0.109375l-0.03125 1.0zm0.9378662 3.84375q0 -1.421875 0.546875 -2.546875q0.5625 -1.140625 1.5625 -1.765625q1.015625 -0.640625 2.28125 -0.640625q1.96875 0 3.1875 1.375q1.234375 1.375 1.234375 3.65625l0 0.234375q0 1.421875 -0.5625 2.5625q-0.546875 1.140625 -1.546875 1.765625q-1.0 0.625 -2.28125 0.625q-1.96875 0 -3.203125 -1.375q-1.21875 -1.390625 -1.21875 -3.671875l0 -0.21875zm1.09375 0.3125q0 1.765625 0.921875 2.90625q0.921875 1.125 2.40625 1.125q1.46875 0 2.375 -1.125q0.921875 -1.140625 0.921875 -3.0l0 -0.21875q0 -1.125 -0.421875 -2.0625q-0.40625 -0.9375 -1.171875 -1.453125q-0.75 -0.515625 -1.734375 -0.515625q-1.453125 0 -2.375 1.140625q-0.921875 1.140625 -0.921875 3.0l0 0.203125zm11.136108 -5.09375l0 11.03125q0 1.3749981 -0.65625 2.093748q-0.65625 0.71875 -1.921875 0.71875q-0.5 0 -0.96875 -0.171875l0.03125 -0.90625q0.390625 0.125 0.8125 0.125q1.625 0 1.625 -1.8749981l0 -11.015625l1.078125 0zm-0.53125 -3.59375q0.34375 0 0.546875 0.21875q0.203125 0.21875 0.203125 0.53125q0 0.3125 -0.203125 0.515625q-0.203125 0.203125 -0.546875 0.203125q-0.34375 0 -0.546875 -0.203125q-0.1875 -0.203125 -0.1875 -0.515625q0 -0.3125 0.1875 -0.53125q0.203125 -0.21875 0.546875 -0.21875zm7.4260254 13.640625q-1.25 0 -2.265625 -0.625q-1.015625 -0.625 -1.59375 -1.71875q-0.5625 -1.109375 -0.5625 -2.484375l0 -0.390625q0 -1.421875 0.546875 -2.5625q0.5625 -1.140625 1.546875 -1.78125q0.984375 -0.65625 2.125 -0.65625q1.796875 0 2.84375 1.21875q1.0625 1.21875 1.0625 3.34375l0 0.609375l-7.03125 0l0 0.21875q0 1.671875 0.953125 2.796875q0.96875 1.109375 2.421875 1.109375q0.875 0 1.546875 -0.3125q0.671875 -0.328125 1.21875 -1.03125l0.6875 0.515625q-1.203125 1.75 -3.5 1.75zm-0.203125 -9.296875q-1.21875 0 -2.0625 0.90625q-0.84375 0.890625 -1.03125 2.421875l5.921875 0l0 -0.125q-0.046875 -1.421875 -0.8125 -2.3125q-0.765625 -0.890625 -2.015625 -0.890625zm9.669067 8.375q1.140625 0 1.90625 -0.640625q0.78125 -0.640625 0.84375 -1.671875l1.046875 0q-0.046875 0.90625 -0.578125 1.65625q-0.515625 0.734375 -1.375 1.15625q-0.859375 0.421875 -1.84375 0.421875q-1.9375 0 -3.078125 -1.34375q-1.125 -1.359375 -1.125 -3.640625l0 -0.328125q0 -1.453125 0.5 -2.5625q0.515625 -1.125 1.46875 -1.734375q0.953125 -0.609375 2.234375 -0.609375q1.609375 0 2.65625 0.96875q1.0625 0.953125 1.140625 2.53125l-1.046875 0q-0.078125 -1.15625 -0.84375 -1.859375q-0.75 -0.71875 -1.90625 -0.71875q-1.484375 0 -2.296875 1.0625q-0.8125 1.0625 -0.8125 2.984375l0 0.328125q0 1.890625 0.8125 2.953125q0.8125 1.046875 2.296875 1.046875zm7.6574097 -11.640625l0 2.515625l2.046875 0l0 0.890625l-2.046875 0l0 6.578125q0 0.8125 0.296875 1.21875q0.296875 0.390625 1.0 0.390625q0.265625 0 0.875 -0.078125l0.046875 0.890625q-0.421875 0.15625 -1.171875 0.15625q-1.109375 0 -1.625 -0.65625q-0.515625 -0.65625 -0.515625 -1.921875l0 -6.578125l-1.8125 0l0 -0.890625l1.8125 0l0 -2.515625l1.09375 0zm15.358704 8.109375l2.078125 0l0 0.90625l-2.078125 0l0 3.359375l-1.09375 0l0 -3.359375l-6.234375 0l0 -0.609375l6.140625 -9.296875l1.1875 0l0 9.0zm-5.984375 0l4.890625 0l0 -7.578125l-0.46875 0.828125l-4.421875 6.75z" fill-rule="nonzero"/><path fill="#000000" d="m689.8183 45.564518l-6.1875 0l0 6.1875l-1.125 0l0 -13.265625l8.21875 0l0 0.953125l-7.09375 0l0 5.15625l6.1875 0l0 0.96875zm9.07489 4.9375q-0.984375 1.4375 -3.140625 1.4375q-1.578125 0 -2.40625 -0.921875q-0.8125 -0.921875 -0.828125 -2.703125l0 -6.421875l1.078125 0l0 6.28125q0 2.8125 2.28125 2.8125q2.359375 0 3.0 -1.953125l0 -7.140625l1.09375 0l0 9.859375l-1.0625 0l-0.015625 -1.25zm4.935669 -8.609375l0.046875 1.6875q0.546875 -0.90625 1.375 -1.375q0.828125 -0.484375 1.84375 -0.484375q1.578125 0 2.34375 0.890625q0.78125 0.890625 0.796875 2.671875l0 6.46875l-1.09375 0l0 -6.484375q0 -1.3125 -0.5625 -1.953125q-0.546875 -0.65625 -1.75 -0.65625q-1.015625 0 -1.796875 0.640625q-0.78125 0.625 -1.15625 1.703125l0 6.75l-1.078125 0l0 -9.859375l1.03125 0zm12.857605 9.125q1.140625 0 1.90625 -0.640625q0.78125 -0.640625 0.84375 -1.671875l1.046875 0q-0.046875 0.90625 -0.578125 1.65625q-0.515625 0.734375 -1.375 1.15625q-0.859375 0.421875 -1.84375 0.421875q-1.9375 0 -3.078125 -1.34375q-1.125 -1.359375 -1.125 -3.640625l0 -0.328125q0 -1.453125 0.5 -2.5625q0.515625 -1.125 1.46875 -1.734375q0.953125 -0.609375 2.234375 -0.609375q1.609375 0 2.65625 0.96875q1.0625 0.953125 1.140625 2.53125l-1.046875 0q-0.078125 -1.15625 -0.84375 -1.859375q-0.75 -0.71875 -1.90625 -0.71875q-1.484375 0 -2.296875 1.0625q-0.8125 1.0625 -0.8125 2.984375l0 0.328125q0 1.890625 0.8125 2.953125q0.8125 1.046875 2.296875 1.046875zm7.6573486 -11.640625l0 2.515625l2.046875 0l0 0.890625l-2.046875 0l0 6.578125q0 0.8125 0.296875 1.21875q0.296875 0.390625 1.0 0.390625q0.265625 0 0.875 -0.078125l0.046875 0.890625q-0.421875 0.15625 -1.171875 0.15625q-1.109375 0 -1.625 -0.65625q-0.515625 -0.65625 -0.515625 -1.921875l0 -6.578125l-1.8125 0l0 -0.890625l1.8125 0l0 -2.515625l1.09375 0zm5.5253296 12.375l-1.09375 0l0 -9.859375l1.09375 0l0 9.859375zm-1.28125 -12.703125q0 -0.3125 0.203125 -0.53125q0.203125 -0.21875 0.546875 -0.21875q0.34375 0 0.546875 0.21875q0.203125 0.21875 0.203125 0.53125q0 0.3125 -0.203125 0.515625q-0.203125 0.203125 -0.546875 0.203125q-0.34375 0 -0.546875 -0.203125q-0.203125 -0.203125 -0.203125 -0.515625zm3.6343994 7.625q0 -1.421875 0.546875 -2.546875q0.5625 -1.140625 1.5625 -1.765625q1.015625 -0.640625 2.28125 -0.640625q1.96875 0 3.1875 1.375q1.234375 1.375 1.234375 3.65625l0 0.234375q0 1.421875 -0.5625 2.5625q-0.546875 1.140625 -1.546875 1.765625q-1.0 0.625 -2.28125 0.625q-1.96875 0 -3.203125 -1.375q-1.21875 -1.390625 -1.21875 -3.671875l0 -0.21875zm1.09375 0.3125q0 1.765625 0.921875 2.90625q0.921875 1.125 2.40625 1.125q1.46875 0 2.375 -1.125q0.921875 -1.140625 0.921875 -3.0l0 -0.21875q0 -1.125 -0.421875 -2.0625q-0.40625 -0.9375 -1.171875 -1.453125q-0.75 -0.515625 -1.734375 -0.515625q-1.453125 0 -2.375 1.140625q-0.921875 1.140625 -0.921875 3.0l0 0.203125zm10.995422 -5.09375l0.046875 1.6875q0.546875 -0.90625 1.375 -1.375q0.828125 -0.484375 1.84375 -0.484375q1.578125 0 2.34375 0.890625q0.78125 0.890625 0.796875 2.671875l0 6.46875l-1.09375 0l0 -6.484375q0 -1.3125 -0.5625 -1.953125q-0.546875 -0.65625 -1.75 -0.65625q-1.015625 0 -1.796875 0.640625q-0.78125 0.625 -1.15625 1.703125l0 6.75l-1.078125 0l0 -9.859375l1.03125 0zm15.43573 9.859375q-0.15625 -0.46875 -0.203125 -1.375q-0.578125 0.75 -1.46875 1.15625q-0.890625 0.40625 -1.875 0.40625q-1.421875 0 -2.3125 -0.796875q-0.875 -0.796875 -0.875 -2.0q0 -1.4375 1.203125 -2.28125q1.203125 -0.84375 3.34375 -0.84375l1.96875 0l0 -1.109375q0 -1.0625 -0.65625 -1.671875q-0.640625 -0.609375 -1.890625 -0.609375q-1.140625 0 -1.890625 0.59375q-0.75 0.578125 -0.75 1.40625l-1.09375 -0.015625q0 -1.171875 1.09375 -2.03125q1.09375 -0.859375 2.6875 -0.859375q1.65625 0 2.609375 0.828125q0.953125 0.8125 0.984375 2.28125l0 4.671875q0 1.4375 0.296875 2.140625l0 0.109375l-1.171875 0zm-3.421875 -0.78125q1.09375 0 1.953125 -0.53125q0.859375 -0.53125 1.25 -1.40625l0 -2.171875l-1.953125 0q-1.625 0.015625 -2.546875 0.59375q-0.921875 0.578125 -0.921875 1.59375q0 0.828125 0.609375 1.375q0.625 0.546875 1.609375 0.546875zm8.414978 0.78125l-1.09375 0l0 -14.0l1.09375 0l0 14.0zm4.1812744 0l-1.09375 0l0 -9.859375l1.09375 0l0 9.859375zm-1.28125 -12.703125q0 -0.3125 0.203125 -0.53125q0.203125 -0.21875 0.546875 -0.21875q0.34375 0 0.546875 0.21875q0.203125 0.21875 0.203125 0.53125q0 0.3125 -0.203125 0.515625q-0.203125 0.203125 -0.546875 0.203125q-0.34375 0 -0.546875 -0.203125q-0.203125 -0.203125 -0.203125 -0.515625zm5.9312134 0.328125l0 2.515625l2.046875 0l0 0.890625l-2.046875 0l0 6.578125q0 0.8125 0.296875 1.21875q0.296875 0.390625 1.0 0.390625q0.265625 0 0.875 -0.078125l0.046875 0.890625q-0.421875 0.15625 -1.171875 0.15625q-1.109375 0 -1.625 -0.65625q-0.515625 -0.65625 -0.515625 -1.921875l0 -6.578125l-1.8125 0l0 -0.890625l1.8125 0l0 -2.515625l1.09375 0zm7.4315796 10.8125l2.875 -8.296875l1.171875 0l-4.203125 11.53125l-0.21875 0.515625q-0.8125 1.796875 -2.5 1.796875q-0.390625 0 -0.84375 -0.125l-0.015625 -0.90625l0.578125 0.046875q0.796875 0 1.28125 -0.390625q0.5 -0.390625 0.859375 -1.359375l0.484375 -1.328125l-3.71875 -9.78125l1.1875 0l3.0625 8.296875z" fill-rule="nonzero"/><path fill="#ffffff" d="m115.894264 170.04857l0 0c0 -10.19191 8.2621765 -18.454086 18.454079 -18.454086l108.22569 0c4.894333 0 9.588196 1.9442749 13.049011 5.405075c3.4608154 3.4608154 5.40506 8.154694 5.40506 13.049011l0 27.186325c0 10.19191 -8.262161 18.454086 -18.454071 18.454086l-108.22569 0l0 0c-10.191902 0 -18.454079 -8.2621765 -18.454079 -18.454086z" fill-rule="evenodd"/><path stroke="#000000" stroke-width="1.0" stroke-linejoin="round" stroke-linecap="butt" d="m115.894264 170.04857l0 0c0 -10.19191 8.2621765 -18.454086 18.454079 -18.454086l108.22569 0c4.894333 0 9.588196 1.9442749 13.049011 5.405075c3.4608154 3.4608154 5.40506 8.154694 5.40506 13.049011l0 27.186325c0 10.19191 -8.262161 18.454086 -18.454071 18.454086l-108.22569 0l0 0c-10.191902 0 -18.454079 -8.2621765 -18.454079 -18.454086z" fill-rule="evenodd"/><path fill="#000000" d="m155.05698 172.65549l0 5.40625l-1.125 0l0 -13.265625l4.515625 0q2.078125 0 3.265625 1.0625q1.203125 1.046875 1.203125 2.90625q0 1.859375 -1.15625 2.875q-1.140625 1.015625 -3.328125 1.015625l-3.375 0zm0 -0.9375l3.390625 0q1.640625 0 2.484375 -0.765625q0.859375 -0.78125 0.859375 -2.171875q0 -1.375 -0.859375 -2.1875q-0.84375 -0.8125 -2.40625 -0.84375l-3.46875 0l0 5.96875zm14.658951 -2.578125q-0.34375 -0.0625 -0.734375 -0.0625q-1.015625 0 -1.71875 0.5625q-0.703125 0.5625 -1.015625 1.65625l0 6.765625l-1.078125 0l0 -9.859375l1.0625 0l0.015625 1.5625q0.875 -1.734375 2.78125 -1.734375q0.453125 0 0.71875 0.109375l-0.03125 1.0zm0.9378967 3.84375q0 -1.421875 0.546875 -2.546875q0.5625 -1.140625 1.5625 -1.765625q1.015625 -0.640625 2.28125 -0.640625q1.96875 0 3.1875 1.375q1.234375 1.375 1.234375 3.65625l0 0.234375q0 1.421875 -0.5625 2.5625q-0.546875 1.140625 -1.546875 1.765625q-1.0 0.625 -2.28125 0.625q-1.96875 0 -3.203125 -1.375q-1.21875 -1.390625 -1.21875 -3.671875l0 -0.21875zm1.09375 0.3125q0 1.765625 0.921875 2.90625q0.921875 1.125 2.40625 1.125q1.46875 0 2.375 -1.125q0.921875 -1.140625 0.921875 -3.0l0 -0.21875q0 -1.125 -0.421875 -2.0625q-0.40625 -0.9375 -1.171875 -1.453125q-0.75 -0.515625 -1.734375 -0.515625q-1.453125 0 -2.375 1.140625q-0.921875 1.140625 -0.921875 3.0l0 0.203125zm11.136093 -5.09375l0 11.03125q0 1.375 -0.65625 2.09375q-0.65625 0.71875 -1.921875 0.71875q-0.5 0 -0.96875 -0.171875l0.03125 -0.90625q0.390625 0.125 0.8125 0.125q1.625 0 1.625 -1.875l0 -11.015625l1.078125 0zm-0.53125 -3.59375q0.34375 0 0.546875 0.21875q0.203125 0.21875 0.203125 0.53125q0 0.3125 -0.203125 0.515625q-0.203125 0.203125 -0.546875 0.203125q-0.34375 0 -0.546875 -0.203125q-0.1875 -0.203125 -0.1875 -0.515625q0 -0.3125 0.1875 -0.53125q0.203125 -0.21875 0.546875 -0.21875zm7.42601 13.640625q-1.25 0 -2.265625 -0.625q-1.015625 -0.625 -1.59375 -1.71875q-0.5625 -1.109375 -0.5625 -2.484375l0 -0.390625q0 -1.421875 0.546875 -2.5625q0.5625 -1.140625 1.546875 -1.78125q0.984375 -0.65625 2.125 -0.65625q1.796875 0 2.84375 1.21875q1.0625 1.21875 1.0625 3.34375l0 0.609375l-7.03125 0l0 0.21875q0 1.671875 0.953125 2.796875q0.96875 1.109375 2.421875 1.109375q0.875 0 1.546875 -0.3125q0.671875 -0.328125 1.21875 -1.03125l0.6875 0.515625q-1.203125 1.75 -3.5 1.75zm-0.203125 -9.296875q-1.21875 0 -2.0625 0.90625q-0.84375 0.890625 -1.03125 2.421875l5.921875 0l0 -0.125q-0.046875 -1.421875 -0.8125 -2.3125q-0.765625 -0.890625 -2.015625 -0.890625zm9.669098 8.375q1.140625 0 1.90625 -0.640625q0.78125 -0.640625 0.84375 -1.671875l1.046875 0q-0.046875 0.90625 -0.578125 1.65625q-0.515625 0.734375 -1.375 1.15625q-0.859375 0.421875 -1.84375 0.421875q-1.9375 0 -3.078125 -1.34375q-1.125 -1.359375 -1.125 -3.640625l0 -0.328125q0 -1.453125 0.5 -2.5625q0.515625 -1.125 1.46875 -1.734375q0.953125 -0.609375 2.234375 -0.609375q1.609375 0 2.65625 0.96875q1.0625 0.953125 1.140625 2.53125l-1.046875 0q-0.078125 -1.15625 -0.84375 -1.859375q-0.75 -0.71875 -1.90625 -0.71875q-1.484375 0 -2.296875 1.0625q-0.8125 1.0625 -0.8125 2.984375l0 0.328125q0 1.890625 0.8125 2.953125q0.8125 1.046875 2.296875 1.046875zm7.6573944 -11.640625l0 2.515625l2.046875 0l0 0.890625l-2.046875 0l0 6.578125q0 0.8125 0.296875 1.21875q0.296875 0.390625 1.0 0.390625q0.265625 0 0.875 -0.078125l0.046875 0.890625q-0.421875 0.15625 -1.171875 0.15625q-1.109375 0 -1.625 -0.65625q-0.515625 -0.65625 -0.515625 -1.921875l0 -6.578125l-1.8125 0l0 -0.890625l1.8125 0l0 -2.515625l1.09375 0zm13.749329 12.375l-1.09375 0l0 -11.953125l-3.609375 1.34375l0 -1.03125l4.515625 -1.671875l0.1875 0l0 13.3125z" fill-rule="nonzero"/><path fill="#000000" d="m162.09404 200.06174l0 -13.265625l3.71875 0q1.625 0 2.90625 0.75q1.296875 0.734375 2.015625 2.125q0.734375 1.375 0.734375 3.15625l0 1.21875q0 1.765625 -0.71875 3.140625q-0.71875 1.375 -2.03125 2.125q-1.296875 0.75 -3.0 0.75l-3.625 0zm1.125 -12.3125l0 11.359375l2.515625 0q2.09375 0 3.359375 -1.375q1.265625 -1.390625 1.265625 -3.765625l0 -1.171875q0 -2.28125 -1.25 -3.65625q-1.25 -1.375 -3.28125 -1.390625l-2.609375 0zm14.653336 12.5q-1.25 0 -2.265625 -0.625q-1.015625 -0.625 -1.59375 -1.71875q-0.5625 -1.109375 -0.5625 -2.484375l0 -0.390625q0 -1.421875 0.546875 -2.5625q0.5625 -1.140625 1.546875 -1.78125q0.984375 -0.65625 2.125 -0.65625q1.796875 0 2.84375 1.21875q1.0625 1.21875 1.0625 3.34375l0 0.609375l-7.03125 0l0 0.21875q0 1.671875 0.953125 2.796875q0.96875 1.109375 2.421875 1.109375q0.875 0 1.546875 -0.3125q0.671875 -0.328125 1.21875 -1.03125l0.6875 0.515625q-1.203125 1.75 -3.5 1.75zm-0.203125 -9.296875q-1.21875 0 -2.0625 0.90625q-0.84375 0.890625 -1.03125 2.421875l5.921875 0l0 -0.125q-0.046875 -1.421875 -0.8125 -2.3125q-0.765625 -0.890625 -2.015625 -0.890625zm11.934723 6.609375q0 -0.8125 -0.65625 -1.296875q-0.65625 -0.5 -1.96875 -0.78125q-1.3125 -0.28125 -2.03125 -0.640625q-0.71875 -0.359375 -1.078125 -0.875q-0.34375 -0.515625 -0.34375 -1.25q0 -1.171875 0.96875 -1.921875q0.984375 -0.765625 2.5 -0.765625q1.65625 0 2.640625 0.8125q1.0 0.8125 1.0 2.125l-1.09375 0q0 -0.875 -0.71875 -1.4375q-0.71875 -0.578125 -1.828125 -0.578125q-1.078125 0 -1.734375 0.484375q-0.640625 0.46875 -0.640625 1.234375q0 0.734375 0.53125 1.140625q0.546875 0.40625 1.984375 0.75q1.4375 0.328125 2.140625 0.71875q0.71875 0.375 1.0625 0.921875q0.359375 0.53125 0.359375 1.296875q0 1.25 -1.015625 2.0q-1.0 0.75 -2.625 0.75q-1.71875 0 -2.796875 -0.828125q-1.0625 -0.84375 -1.0625 -2.125l1.09375 0q0.0625 0.96875 0.796875 1.5q0.75 0.53125 1.96875 0.53125q1.140625 0 1.84375 -0.5q0.703125 -0.5 0.703125 -1.265625zm4.7590485 2.5l-1.09375 0l0 -9.859375l1.09375 0l0 9.859375zm-1.28125 -12.703125q0 -0.3125 0.203125 -0.53125q0.203125 -0.21875 0.546875 -0.21875q0.34375 0 0.546875 0.21875q0.203125 0.21875 0.203125 0.53125q0 0.3125 -0.203125 0.515625q-0.203125 0.203125 -0.546875 0.203125q-0.34375 0 -0.546875 -0.203125q-0.203125 -0.203125 -0.203125 -0.515625zm3.8062592 7.6875q0 -2.3125 1.015625 -3.65625q1.03125 -1.359375 2.796875 -1.359375q2.015625 0 3.0625 1.59375l0.046875 -1.421875l1.015625 0l0 9.65625q0 1.90625 -1.0625 3.015625q-1.0625 1.109375 -2.890625 1.109375q-1.03125 0 -1.96875 -0.46875q-0.921875 -0.453125 -1.453125 -1.21875l0.609375 -0.65625q1.15625 1.421875 2.75 1.421875q1.359375 0 2.125 -0.8125q0.765625 -0.796875 0.796875 -2.21875l0 -1.25q-1.046875 1.46875 -3.0625 1.46875q-1.703125 0 -2.75 -1.359375q-1.03125 -1.375 -1.03125 -3.703125l0 -0.140625zm1.109375 0.1875q0 1.890625 0.75 2.984375q0.75 1.078125 2.125 1.078125q2.015625 0 2.859375 -1.796875l0 -4.59375q-0.390625 -0.9375 -1.109375 -1.4375q-0.71875 -0.5 -1.734375 -0.5q-1.375 0 -2.140625 1.078125q-0.75 1.078125 -0.75 3.1875zm10.707764 -5.03125l0.046875 1.6875q0.546875 -0.90625 1.375 -1.375q0.828125 -0.484375 1.84375 -0.484375q1.578125 0 2.34375 0.890625q0.78125 0.890625 0.796875 2.671875l0 6.46875l-1.09375 0l0 -6.484375q0 -1.3125 -0.5625 -1.953125q-0.546875 -0.65625 -1.75 -0.65625q-1.015625 0 -1.796875 0.640625q-0.78125 0.625 -1.15625 1.703125l0 6.75l-1.078125 0l0 -9.859375l1.03125 0z" fill-rule="nonzero"/><path fill="#ffffff" d="m333.74054 170.04857l0 0c0 -10.19191 8.2621765 -18.454086 18.454071 -18.454086l108.22571 0c4.8943176 0 9.588196 1.9442749 13.048981 5.405075c3.4608154 3.4608154 5.4050903 8.154694 5.4050903 13.049011l0 27.186325c0 10.19191 -8.2621765 18.454086 -18.454071 18.454086l-108.22571 0l0 0c-10.191895 0 -18.454071 -8.2621765 -18.454071 -18.454086z" fill-rule="evenodd"/><path stroke="#000000" stroke-width="1.0" stroke-linejoin="round" stroke-linecap="butt" d="m333.74054 170.04857l0 0c0 -10.19191 8.2621765 -18.454086 18.454071 -18.454086l108.22571 0c4.8943176 0 9.588196 1.9442749 13.048981 5.405075c3.4608154 3.4608154 5.4050903 8.154694 5.4050903 13.049011l0 27.186325c0 10.19191 -8.2621765 18.454086 -18.454071 18.454086l-108.22571 0l0 0c-10.191895 0 -18.454071 -8.2621765 -18.454071 -18.454086z" fill-rule="evenodd"/><path fill="#000000" d="m372.90326 172.65549l0 5.40625l-1.125 0l0 -13.265625l4.515625 0q2.078125 0 3.265625 1.0625q1.203125 1.046875 1.203125 2.90625q0 1.859375 -1.15625 2.875q-1.140625 1.015625 -3.328125 1.015625l-3.375 0zm0 -0.9375l3.390625 0q1.640625 0 2.484375 -0.765625q0.859375 -0.78125 0.859375 -2.171875q0 -1.375 -0.859375 -2.1875q-0.84375 -0.8125 -2.40625 -0.84375l-3.46875 0l0 5.96875zm14.658936 -2.578125q-0.34375 -0.0625 -0.734375 -0.0625q-1.015625 0 -1.71875 0.5625q-0.703125 0.5625 -1.015625 1.65625l0 6.765625l-1.078125 0l0 -9.859375l1.0625 0l0.015625 1.5625q0.875 -1.734375 2.78125 -1.734375q0.453125 0 0.71875 0.109375l-0.03125 1.0zm0.9378967 3.84375q0 -1.421875 0.546875 -2.546875q0.5625 -1.140625 1.5625 -1.765625q1.015625 -0.640625 2.28125 -0.640625q1.96875 0 3.1875 1.375q1.234375 1.375 1.234375 3.65625l0 0.234375q0 1.421875 -0.5625 2.5625q-0.546875 1.140625 -1.546875 1.765625q-1.0 0.625 -2.28125 0.625q-1.96875 0 -3.203125 -1.375q-1.21875 -1.390625 -1.21875 -3.671875l0 -0.21875zm1.09375 0.3125q0 1.765625 0.921875 2.90625q0.921875 1.125 2.40625 1.125q1.46875 0 2.375 -1.125q0.921875 -1.140625 0.921875 -3.0l0 -0.21875q0 -1.125 -0.421875 -2.0625q-0.40625 -0.9375 -1.171875 -1.453125q-0.75 -0.515625 -1.734375 -0.515625q-1.453125 0 -2.375 1.140625q-0.921875 1.140625 -0.921875 3.0l0 0.203125zm11.136108 -5.09375l0 11.03125q0 1.375 -0.65625 2.09375q-0.65625 0.71875 -1.921875 0.71875q-0.5 0 -0.96875 -0.171875l0.03125 -0.90625q0.390625 0.125 0.8125 0.125q1.625 0 1.625 -1.875l0 -11.015625l1.078125 0zm-0.53125 -3.59375q0.34375 0 0.546875 0.21875q0.203125 0.21875 0.203125 0.53125q0 0.3125 -0.203125 0.515625q-0.203125 0.203125 -0.546875 0.203125q-0.34375 0 -0.546875 -0.203125q-0.1875 -0.203125 -0.1875 -0.515625q0 -0.3125 0.1875 -0.53125q0.203125 -0.21875 0.546875 -0.21875zm7.425995 13.640625q-1.25 0 -2.265625 -0.625q-1.015625 -0.625 -1.59375 -1.71875q-0.5625 -1.109375 -0.5625 -2.484375l0 -0.390625q0 -1.421875 0.546875 -2.5625q0.5625 -1.140625 1.546875 -1.78125q0.984375 -0.65625 2.125 -0.65625q1.796875 0 2.84375 1.21875q1.0625 1.21875 1.0625 3.34375l0 0.609375l-7.03125 0l0 0.21875q0 1.671875 0.953125 2.796875q0.96875 1.109375 2.421875 1.109375q0.875 0 1.546875 -0.3125q0.671875 -0.328125 1.21875 -1.03125l0.6875 0.515625q-1.203125 1.75 -3.5 1.75zm-0.203125 -9.296875q-1.21875 0 -2.0625 0.90625q-0.84375 0.890625 -1.03125 2.421875l5.921875 0l0 -0.125q-0.046875 -1.421875 -0.8125 -2.3125q-0.765625 -0.890625 -2.015625 -0.890625zm9.669098 8.375q1.140625 0 1.90625 -0.640625q0.78125 -0.640625 0.84375 -1.671875l1.046875 0q-0.046875 0.90625 -0.578125 1.65625q-0.515625 0.734375 -1.375 1.15625q-0.859375 0.421875 -1.84375 0.421875q-1.9375 0 -3.078125 -1.34375q-1.125 -1.359375 -1.125 -3.640625l0 -0.328125q0 -1.453125 0.5 -2.5625q0.515625 -1.125 1.46875 -1.734375q0.953125 -0.609375 2.234375 -0.609375q1.609375 0 2.65625 0.96875q1.0625 0.953125 1.140625 2.53125l-1.046875 0q-0.078125 -1.15625 -0.84375 -1.859375q-0.75 -0.71875 -1.90625 -0.71875q-1.484375 0 -2.296875 1.0625q-0.8125 1.0625 -0.8125 2.984375l0 0.328125q0 1.890625 0.8125 2.953125q0.8125 1.046875 2.296875 1.046875zm7.6574097 -11.640625l0 2.515625l2.046875 0l0 0.890625l-2.046875 0l0 6.578125q0 0.8125 0.296875 1.21875q0.296875 0.390625 1.0 0.390625q0.265625 0 0.875 -0.078125l0.046875 0.890625q-0.421875 0.15625 -1.171875 0.15625q-1.109375 0 -1.625 -0.65625q-0.515625 -0.65625 -0.515625 -1.921875l0 -6.578125l-1.8125 0l0 -0.890625l1.8125 0l0 -2.515625l1.09375 0zm16.983704 12.375l-8.3125 0l0 -0.84375l4.546875 -5.15625q1.125 -1.296875 1.5625 -2.140625q0.4375 -0.84375 0.4375 -1.65625q0 -1.25 -0.734375 -1.984375q-0.734375 -0.734375 -2.03125 -0.734375q-1.34375 0 -2.171875 0.859375q-0.8125 0.859375 -0.8125 2.21875l-1.09375 0q0 -1.125 0.5 -2.03125q0.515625 -0.921875 1.4375 -1.453125q0.9375 -0.53125 2.140625 -0.53125q1.8125 0 2.84375 0.96875q1.03125 0.953125 1.03125 2.59375q0 0.9375 -0.578125 2.046875q-0.578125 1.09375 -2.046875 2.75l-3.6875 4.171875l6.96875 0l0 0.921875z" fill-rule="nonzero"/><path fill="#000000" d="m379.9403 200.06174l0 -13.265625l3.71875 0q1.625 0 2.90625 0.75q1.296875 0.734375 2.015625 2.125q0.734375 1.375 0.734375 3.15625l0 1.21875q0 1.765625 -0.71875 3.140625q-0.71875 1.375 -2.03125 2.125q-1.296875 0.75 -3.0 0.75l-3.625 0zm1.125 -12.3125l0 11.359375l2.515625 0q2.09375 0 3.359375 -1.375q1.265625 -1.390625 1.265625 -3.765625l0 -1.171875q0 -2.28125 -1.25 -3.65625q-1.25 -1.375 -3.28125 -1.390625l-2.609375 0zm14.65332 12.5q-1.25 0 -2.265625 -0.625q-1.015625 -0.625 -1.59375 -1.71875q-0.5625 -1.109375 -0.5625 -2.484375l0 -0.390625q0 -1.421875 0.546875 -2.5625q0.5625 -1.140625 1.546875 -1.78125q0.984375 -0.65625 2.125 -0.65625q1.796875 0 2.84375 1.21875q1.0625 1.21875 1.0625 3.34375l0 0.609375l-7.03125 0l0 0.21875q0 1.671875 0.953125 2.796875q0.96875 1.109375 2.421875 1.109375q0.875 0 1.546875 -0.3125q0.671875 -0.328125 1.21875 -1.03125l0.6875 0.515625q-1.203125 1.75 -3.5 1.75zm-0.203125 -9.296875q-1.21875 0 -2.0625 0.90625q-0.84375 0.890625 -1.03125 2.421875l5.921875 0l0 -0.125q-0.046875 -1.421875 -0.8125 -2.3125q-0.765625 -0.890625 -2.015625 -0.890625zm11.934723 6.609375q0 -0.8125 -0.65625 -1.296875q-0.65625 -0.5 -1.96875 -0.78125q-1.3125 -0.28125 -2.03125 -0.640625q-0.71875 -0.359375 -1.078125 -0.875q-0.34375 -0.515625 -0.34375 -1.25q0 -1.171875 0.96875 -1.921875q0.984375 -0.765625 2.5 -0.765625q1.65625 0 2.640625 0.8125q1.0 0.8125 1.0 2.125l-1.09375 0q0 -0.875 -0.71875 -1.4375q-0.71875 -0.578125 -1.828125 -0.578125q-1.078125 0 -1.734375 0.484375q-0.640625 0.46875 -0.640625 1.234375q0 0.734375 0.53125 1.140625q0.546875 0.40625 1.984375 0.75q1.4375 0.328125 2.140625 0.71875q0.71875 0.375 1.0625 0.921875q0.359375 0.53125 0.359375 1.296875q0 1.25 -1.015625 2.0q-1.0 0.75 -2.625 0.75q-1.71875 0 -2.796875 -0.828125q-1.0625 -0.84375 -1.0625 -2.125l1.09375 0q0.0625 0.96875 0.796875 1.5q0.75 0.53125 1.96875 0.53125q1.140625 0 1.84375 -0.5q0.703125 -0.5 0.703125 -1.265625zm4.7590637 2.5l-1.09375 0l0 -9.859375l1.09375 0l0 9.859375zm-1.28125 -12.703125q0 -0.3125 0.203125 -0.53125q0.203125 -0.21875 0.546875 -0.21875q0.34375 0 0.546875 0.21875q0.203125 0.21875 0.203125 0.53125q0 0.3125 -0.203125 0.515625q-0.203125 0.203125 -0.546875 0.203125q-0.34375 0 -0.546875 -0.203125q-0.203125 -0.203125 -0.203125 -0.515625zm3.806244 7.6875q0 -2.3125 1.015625 -3.65625q1.03125 -1.359375 2.796875 -1.359375q2.015625 0 3.0625 1.59375l0.046875 -1.421875l1.015625 0l0 9.65625q0 1.90625 -1.0625 3.015625q-1.0625 1.109375 -2.890625 1.109375q-1.03125 0 -1.96875 -0.46875q-0.921875 -0.453125 -1.453125 -1.21875l0.609375 -0.65625q1.15625 1.421875 2.75 1.421875q1.359375 0 2.125 -0.8125q0.765625 -0.796875 0.796875 -2.21875l0 -1.25q-1.046875 1.46875 -3.0625 1.46875q-1.703125 0 -2.75 -1.359375q-1.03125 -1.375 -1.03125 -3.703125l0 -0.140625zm1.109375 0.1875q0 1.890625 0.75 2.984375q0.75 1.078125 2.125 1.078125q2.015625 0 2.859375 -1.796875l0 -4.59375q-0.390625 -0.9375 -1.109375 -1.4375q-0.71875 -0.5 -1.734375 -0.5q-1.375 0 -2.140625 1.078125q-0.75 1.078125 -0.75 3.1875zm10.707764 -5.03125l0.046875 1.6875q0.546875 -0.90625 1.375 -1.375q0.828125 -0.484375 1.84375 -0.484375q1.578125 0 2.34375 0.890625q0.78125 0.890625 0.796875 2.671875l0 6.46875l-1.09375 0l0 -6.484375q0 -1.3125 -0.5625 -1.953125q-0.546875 -0.65625 -1.75 -0.65625q-1.015625 0 -1.796875 0.640625q-0.78125 0.625 -1.15625 1.703125l0 6.75l-1.078125 0l0 -9.859375l1.03125 0z" fill-rule="nonzero"/><path fill="#ffffff" d="m551.5868 170.04857l0 0c0 -10.19191 8.262207 -18.454086 18.454102 -18.454086l108.22571 0c4.894287 0 9.588196 1.9442749 13.049011 5.405075c3.4607544 3.4608154 5.4050293 8.154694 5.4050293 13.049011l0 27.186325c0 10.19191 -8.262146 18.454086 -18.45404 18.454086l-108.22571 0l0 0c-10.191895 0 -18.454102 -8.2621765 -18.454102 -18.454086z" fill-rule="evenodd"/><path stroke="#000000" stroke-width="1.0" stroke-linejoin="round" stroke-linecap="butt" d="m551.5868 170.04857l0 0c0 -10.19191 8.262207 -18.454086 18.454102 -18.454086l108.22571 0c4.894287 0 9.588196 1.9442749 13.049011 5.405075c3.4607544 3.4608154 5.4050293 8.154694 5.4050293 13.049011l0 27.186325c0 10.19191 -8.262146 18.454086 -18.45404 18.454086l-108.22571 0l0 0c-10.191895 0 -18.454102 -8.2621765 -18.454102 -18.454086z" fill-rule="evenodd"/><path fill="#000000" d="m590.7495 172.65549l0 5.40625l-1.125 0l0 -13.265625l4.515625 0q2.078125 0 3.265625 1.0625q1.203125 1.046875 1.203125 2.90625q0 1.859375 -1.15625 2.875q-1.140625 1.015625 -3.328125 1.015625l-3.375 0zm0 -0.9375l3.390625 0q1.640625 0 2.484375 -0.765625q0.859375 -0.78125 0.859375 -2.171875q0 -1.375 -0.859375 -2.1875q-0.84375 -0.8125 -2.40625 -0.84375l-3.46875 0l0 5.96875zm14.658936 -2.578125q-0.34375 -0.0625 -0.734375 -0.0625q-1.015625 0 -1.71875 0.5625q-0.703125 0.5625 -1.015625 1.65625l0 6.765625l-1.078125 0l0 -9.859375l1.0625 0l0.015625 1.5625q0.875 -1.734375 2.78125 -1.734375q0.453125 0 0.71875 0.109375l-0.03125 1.0zm0.93792725 3.84375q0 -1.421875 0.546875 -2.546875q0.5625 -1.140625 1.5625 -1.765625q1.015625 -0.640625 2.28125 -0.640625q1.96875 0 3.1875 1.375q1.234375 1.375 1.234375 3.65625l0 0.234375q0 1.421875 -0.5625 2.5625q-0.546875 1.140625 -1.546875 1.765625q-1.0 0.625 -2.28125 0.625q-1.96875 0 -3.203125 -1.375q-1.21875 -1.390625 -1.21875 -3.671875l0 -0.21875zm1.09375 0.3125q0 1.765625 0.921875 2.90625q0.921875 1.125 2.40625 1.125q1.46875 0 2.375 -1.125q0.921875 -1.140625 0.921875 -3.0l0 -0.21875q0 -1.125 -0.421875 -2.0625q-0.40625 -0.9375 -1.171875 -1.453125q-0.75 -0.515625 -1.734375 -0.515625q-1.453125 0 -2.375 1.140625q-0.921875 1.140625 -0.921875 3.0l0 0.203125zm11.136108 -5.09375l0 11.03125q0 1.375 -0.65625 2.09375q-0.65625 0.71875 -1.921875 0.71875q-0.5 0 -0.96875 -0.171875l0.03125 -0.90625q0.390625 0.125 0.8125 0.125q1.625 0 1.625 -1.875l0 -11.015625l1.078125 0zm-0.53125 -3.59375q0.34375 0 0.546875 0.21875q0.203125 0.21875 0.203125 0.53125q0 0.3125 -0.203125 0.515625q-0.203125 0.203125 -0.546875 0.203125q-0.34375 0 -0.546875 -0.203125q-0.1875 -0.203125 -0.1875 -0.515625q0 -0.3125 0.1875 -0.53125q0.203125 -0.21875 0.546875 -0.21875zm7.4259644 13.640625q-1.25 0 -2.265625 -0.625q-1.015625 -0.625 -1.59375 -1.71875q-0.5625 -1.109375 -0.5625 -2.484375l0 -0.390625q0 -1.421875 0.546875 -2.5625q0.5625 -1.140625 1.546875 -1.78125q0.984375 -0.65625 2.125 -0.65625q1.796875 0 2.84375 1.21875q1.0625 1.21875 1.0625 3.34375l0 0.609375l-7.03125 0l0 0.21875q0 1.671875 0.953125 2.796875q0.96875 1.109375 2.421875 1.109375q0.875 0 1.546875 -0.3125q0.671875 -0.328125 1.21875 -1.03125l0.6875 0.515625q-1.203125 1.75 -3.5 1.75zm-0.203125 -9.296875q-1.21875 0 -2.0625 0.90625q-0.84375 0.890625 -1.03125 2.421875l5.921875 0l0 -0.125q-0.046875 -1.421875 -0.8125 -2.3125q-0.765625 -0.890625 -2.015625 -0.890625zm9.669128 8.375q1.140625 0 1.90625 -0.640625q0.78125 -0.640625 0.84375 -1.671875l1.046875 0q-0.046875 0.90625 -0.578125 1.65625q-0.515625 0.734375 -1.375 1.15625q-0.859375 0.421875 -1.84375 0.421875q-1.9375 0 -3.078125 -1.34375q-1.125 -1.359375 -1.125 -3.640625l0 -0.328125q0 -1.453125 0.5 -2.5625q0.515625 -1.125 1.46875 -1.734375q0.953125 -0.609375 2.234375 -0.609375q1.609375 0 2.65625 0.96875q1.0625 0.953125 1.140625 2.53125l-1.046875 0q-0.078125 -1.15625 -0.84375 -1.859375q-0.75 -0.71875 -1.90625 -0.71875q-1.484375 0 -2.296875 1.0625q-0.8125 1.0625 -0.8125 2.984375l0 0.328125q0 1.890625 0.8125 2.953125q0.8125 1.046875 2.296875 1.046875zm7.6574097 -11.640625l0 2.515625l2.046875 0l0 0.890625l-2.046875 0l0 6.578125q0 0.8125 0.296875 1.21875q0.296875 0.390625 1.0 0.390625q0.265625 0 0.875 -0.078125l0.046875 0.890625q-0.421875 0.15625 -1.171875 0.15625q-1.109375 0 -1.625 -0.65625q-0.515625 -0.65625 -0.515625 -1.921875l0 -6.578125l-1.8125 0l0 -0.890625l1.8125 0l0 -2.515625l1.09375 0zm11.093079 5.15625l1.125 0q0.9375 0 1.640625 -0.328125q0.703125 -0.34375 1.0625 -0.921875q0.375 -0.578125 0.375 -1.328125q0 -1.28125 -0.71875 -2.0q-0.71875 -0.71875 -2.0625 -0.71875q-1.28125 0 -2.09375 0.75q-0.8125 0.75 -0.8125 1.984375l-1.09375 0q0 -1.03125 0.515625 -1.875q0.515625 -0.859375 1.4375 -1.328125q0.921875 -0.46875 2.046875 -0.46875q1.796875 0 2.828125 0.984375q1.046875 0.984375 1.046875 2.703125q0 0.953125 -0.609375 1.765625q-0.59375 0.796875 -1.65625 1.203125q1.234375 0.34375 1.875 1.1875q0.640625 0.84375 0.640625 2.015625q0 1.703125 -1.109375 2.75q-1.109375 1.03125 -2.96875 1.03125q-1.1875 0 -2.171875 -0.46875q-0.984375 -0.484375 -1.53125 -1.328125q-0.546875 -0.859375 -0.546875 -1.984375l1.09375 0q0 1.265625 0.875 2.0625q0.890625 0.796875 2.28125 0.796875q1.40625 0 2.1875 -0.71875q0.796875 -0.734375 0.796875 -2.109375q0 -1.328125 -0.859375 -2.03125q-0.84375 -0.703125 -2.5 -0.703125l-1.09375 0l0 -0.921875z" fill-rule="nonzero"/><path fill="#000000" d="m597.78656 200.06174l0 -13.265625l3.71875 0q1.625 0 2.90625 0.75q1.296875 0.734375 2.015625 2.125q0.734375 1.375 0.734375 3.15625l0 1.21875q0 1.765625 -0.71875 3.140625q-0.71875 1.375 -2.03125 2.125q-1.296875 0.75 -3.0 0.75l-3.625 0zm1.125 -12.3125l0 11.359375l2.515625 0q2.09375 0 3.359375 -1.375q1.265625 -1.390625 1.265625 -3.765625l0 -1.171875q0 -2.28125 -1.25 -3.65625q-1.25 -1.375 -3.28125 -1.390625l-2.609375 0zm14.65332 12.5q-1.25 0 -2.265625 -0.625q-1.015625 -0.625 -1.59375 -1.71875q-0.5625 -1.109375 -0.5625 -2.484375l0 -0.390625q0 -1.421875 0.546875 -2.5625q0.5625 -1.140625 1.546875 -1.78125q0.984375 -0.65625 2.125 -0.65625q1.796875 0 2.84375 1.21875q1.0625 1.21875 1.0625 3.34375l0 0.609375l-7.03125 0l0 0.21875q0 1.671875 0.953125 2.796875q0.96875 1.109375 2.421875 1.109375q0.875 0 1.546875 -0.3125q0.671875 -0.328125 1.21875 -1.03125l0.6875 0.515625q-1.203125 1.75 -3.5 1.75zm-0.203125 -9.296875q-1.21875 0 -2.0625 0.90625q-0.84375 0.890625 -1.03125 2.421875l5.921875 0l0 -0.125q-0.046875 -1.421875 -0.8125 -2.3125q-0.765625 -0.890625 -2.015625 -0.890625zm11.934753 6.609375q0 -0.8125 -0.65625 -1.296875q-0.65625 -0.5 -1.96875 -0.78125q-1.3125 -0.28125 -2.03125 -0.640625q-0.71875 -0.359375 -1.078125 -0.875q-0.34375 -0.515625 -0.34375 -1.25q0 -1.171875 0.96875 -1.921875q0.984375 -0.765625 2.5 -0.765625q1.65625 0 2.640625 0.8125q1.0 0.8125 1.0 2.125l-1.09375 0q0 -0.875 -0.71875 -1.4375q-0.71875 -0.578125 -1.828125 -0.578125q-1.078125 0 -1.734375 0.484375q-0.640625 0.46875 -0.640625 1.234375q0 0.734375 0.53125 1.140625q0.546875 0.40625 1.984375 0.75q1.4375 0.328125 2.140625 0.71875q0.71875 0.375 1.0625 0.921875q0.359375 0.53125 0.359375 1.296875q0 1.25 -1.015625 2.0q-1.0 0.75 -2.625 0.75q-1.71875 0 -2.796875 -0.828125q-1.0625 -0.84375 -1.0625 -2.125l1.09375 0q0.0625 0.96875 0.796875 1.5q0.75 0.53125 1.96875 0.53125q1.140625 0 1.84375 -0.5q0.703125 -0.5 0.703125 -1.265625zm4.759033 2.5l-1.09375 0l0 -9.859375l1.09375 0l0 9.859375zm-1.28125 -12.703125q0 -0.3125 0.203125 -0.53125q0.203125 -0.21875 0.546875 -0.21875q0.34375 0 0.546875 0.21875q0.203125 0.21875 0.203125 0.53125q0 0.3125 -0.203125 0.515625q-0.203125 0.203125 -0.546875 0.203125q-0.34375 0 -0.546875 -0.203125q-0.203125 -0.203125 -0.203125 -0.515625zm3.8062744 7.6875q0 -2.3125 1.015625 -3.65625q1.03125 -1.359375 2.796875 -1.359375q2.015625 0 3.0625 1.59375l0.046875 -1.421875l1.015625 0l0 9.65625q0 1.90625 -1.0625 3.015625q-1.0625 1.109375 -2.890625 1.109375q-1.03125 0 -1.96875 -0.46875q-0.921875 -0.453125 -1.453125 -1.21875l0.609375 -0.65625q1.15625 1.421875 2.75 1.421875q1.359375 0 2.125 -0.8125q0.765625 -0.796875 0.796875 -2.21875l0 -1.25q-1.046875 1.46875 -3.0625 1.46875q-1.703125 0 -2.75 -1.359375q-1.03125 -1.375 -1.03125 -3.703125l0 -0.140625zm1.109375 0.1875q0 1.890625 0.75 2.984375q0.75 1.078125 2.125 1.078125q2.015625 0 2.859375 -1.796875l0 -4.59375q-0.390625 -0.9375 -1.109375 -1.4375q-0.71875 -0.5 -1.734375 -0.5q-1.375 0 -2.140625 1.078125q-0.75 1.078125 -0.75 3.1875zm10.707764 -5.03125l0.046875 1.6875q0.546875 -0.90625 1.375 -1.375q0.828125 -0.484375 1.84375 -0.484375q1.578125 0 2.34375 0.890625q0.78125 0.890625 0.796875 2.671875l0 6.46875l-1.09375 0l0 -6.484375q0 -1.3125 -0.5625 -1.953125q-0.546875 -0.65625 -1.75 -0.65625q-1.015625 0 -1.796875 0.640625q-0.78125 0.625 -1.15625 1.703125l0 6.75l-1.078125 0l0 -9.859375l1.03125 0z" fill-rule="nonzero"/><path fill="#ffffff" d="m769.43304 170.04857l0 0c0 -10.19191 8.262207 -18.454086 18.454102 -18.454086l108.22571 0c4.894348 0 9.588196 1.9442749 13.049011 5.405075c3.4608154 3.4608154 5.4050903 8.154694 5.4050903 13.049011l0 27.186325c0 10.19191 -8.262207 18.454086 -18.454102 18.454086l-108.22571 0l0 0c-10.191895 0 -18.454102 -8.2621765 -18.454102 -18.454086z" fill-rule="evenodd"/><path stroke="#000000" stroke-width="1.0" stroke-linejoin="round" stroke-linecap="butt" d="m769.43304 170.04857l0 0c0 -10.19191 8.262207 -18.454086 18.454102 -18.454086l108.22571 0c4.894348 0 9.588196 1.9442749 13.049011 5.405075c3.4608154 3.4608154 5.4050903 8.154694 5.4050903 13.049011l0 27.186325c0 10.19191 -8.262207 18.454086 -18.454102 18.454086l-108.22571 0l0 0c-10.191895 0 -18.454102 -8.2621765 -18.454102 -18.454086z" fill-rule="evenodd"/><path fill="#000000" d="m808.59576 172.65549l0 5.40625l-1.125 0l0 -13.265625l4.515625 0q2.078125 0 3.265625 1.0625q1.203125 1.046875 1.203125 2.90625q0 1.859375 -1.15625 2.875q-1.140625 1.015625 -3.328125 1.015625l-3.375 0zm0 -0.9375l3.390625 0q1.640625 0 2.484375 -0.765625q0.859375 -0.78125 0.859375 -2.171875q0 -1.375 -0.859375 -2.1875q-0.84375 -0.8125 -2.40625 -0.84375l-3.46875 0l0 5.96875zm14.658997 -2.578125q-0.34375 -0.0625 -0.734375 -0.0625q-1.015625 0 -1.71875 0.5625q-0.703125 0.5625 -1.015625 1.65625l0 6.765625l-1.078125 0l0 -9.859375l1.0625 0l0.015625 1.5625q0.875 -1.734375 2.78125 -1.734375q0.453125 0 0.71875 0.109375l-0.03125 1.0zm0.9378662 3.84375q0 -1.421875 0.546875 -2.546875q0.5625 -1.140625 1.5625 -1.765625q1.015625 -0.640625 2.28125 -0.640625q1.96875 0 3.1875 1.375q1.234375 1.375 1.234375 3.65625l0 0.234375q0 1.421875 -0.5625 2.5625q-0.546875 1.140625 -1.546875 1.765625q-1.0 0.625 -2.28125 0.625q-1.96875 0 -3.203125 -1.375q-1.21875 -1.390625 -1.21875 -3.671875l0 -0.21875zm1.09375 0.3125q0 1.765625 0.921875 2.90625q0.921875 1.125 2.40625 1.125q1.46875 0 2.375 -1.125q0.921875 -1.140625 0.921875 -3.0l0 -0.21875q0 -1.125 -0.421875 -2.0625q-0.40625 -0.9375 -1.171875 -1.453125q-0.75 -0.515625 -1.734375 -0.515625q-1.453125 0 -2.375 1.140625q-0.921875 1.140625 -0.921875 3.0l0 0.203125zm11.136108 -5.09375l0 11.03125q0 1.375 -0.65625 2.09375q-0.65625 0.71875 -1.921875 0.71875q-0.5 0 -0.96875 -0.171875l0.03125 -0.90625q0.390625 0.125 0.8125 0.125q1.625 0 1.625 -1.875l0 -11.015625l1.078125 0zm-0.53125 -3.59375q0.34375 0 0.546875 0.21875q0.203125 0.21875 0.203125 0.53125q0 0.3125 -0.203125 0.515625q-0.203125 0.203125 -0.546875 0.203125q-0.34375 0 -0.546875 -0.203125q-0.1875 -0.203125 -0.1875 -0.515625q0 -0.3125 0.1875 -0.53125q0.203125 -0.21875 0.546875 -0.21875zm7.4260254 13.640625q-1.25 0 -2.265625 -0.625q-1.015625 -0.625 -1.59375 -1.71875q-0.5625 -1.109375 -0.5625 -2.484375l0 -0.390625q0 -1.421875 0.546875 -2.5625q0.5625 -1.140625 1.546875 -1.78125q0.984375 -0.65625 2.125 -0.65625q1.796875 0 2.84375 1.21875q1.0625 1.21875 1.0625 3.34375l0 0.609375l-7.03125 0l0 0.21875q0 1.671875 0.953125 2.796875q0.96875 1.109375 2.421875 1.109375q0.875 0 1.546875 -0.3125q0.671875 -0.328125 1.21875 -1.03125l0.6875 0.515625q-1.203125 1.75 -3.5 1.75zm-0.203125 -9.296875q-1.21875 0 -2.0625 0.90625q-0.84375 0.890625 -1.03125 2.421875l5.921875 0l0 -0.125q-0.046875 -1.421875 -0.8125 -2.3125q-0.765625 -0.890625 -2.015625 -0.890625zm9.669067 8.375q1.140625 0 1.90625 -0.640625q0.78125 -0.640625 0.84375 -1.671875l1.046875 0q-0.046875 0.90625 -0.578125 1.65625q-0.515625 0.734375 -1.375 1.15625q-0.859375 0.421875 -1.84375 0.421875q-1.9375 0 -3.078125 -1.34375q-1.125 -1.359375 -1.125 -3.640625l0 -0.328125q0 -1.453125 0.5 -2.5625q0.515625 -1.125 1.46875 -1.734375q0.953125 -0.609375 2.234375 -0.609375q1.609375 0 2.65625 0.96875q1.0625 0.953125 1.140625 2.53125l-1.046875 0q-0.078125 -1.15625 -0.84375 -1.859375q-0.75 -0.71875 -1.90625 -0.71875q-1.484375 0 -2.296875 1.0625q-0.8125 1.0625 -0.8125 2.984375l0 0.328125q0 1.890625 0.8125 2.953125q0.8125 1.046875 2.296875 1.046875zm7.6574097 -11.640625l0 2.515625l2.046875 0l0 0.890625l-2.046875 0l0 6.578125q0 0.8125 0.296875 1.21875q0.296875 0.390625 1.0 0.390625q0.265625 0 0.875 -0.078125l0.046875 0.890625q-0.421875 0.15625 -1.171875 0.15625q-1.109375 0 -1.625 -0.65625q-0.515625 -0.65625 -0.515625 -1.921875l0 -6.578125l-1.8125 0l0 -0.890625l1.8125 0l0 -2.515625l1.09375 0zm15.358704 8.109375l2.078125 0l0 0.90625l-2.078125 0l0 3.359375l-1.09375 0l0 -3.359375l-6.234375 0l0 -0.609375l6.140625 -9.296875l1.1875 0l0 9.0zm-5.984375 0l4.890625 0l0 -7.578125l-0.46875 0.828125l-4.421875 6.75z" fill-rule="nonzero"/><path fill="#000000" d="m815.6328 200.06174l0 -13.265625l3.71875 0q1.625 0 2.90625 0.75q1.296875 0.734375 2.015625 2.125q0.734375 1.375 0.734375 3.15625l0 1.21875q0 1.765625 -0.71875 3.140625q-0.71875 1.375 -2.03125 2.125q-1.296875 0.75 -3.0 0.75l-3.625 0zm1.125 -12.3125l0 11.359375l2.515625 0q2.09375 0 3.359375 -1.375q1.265625 -1.390625 1.265625 -3.765625l0 -1.171875q0 -2.28125 -1.25 -3.65625q-1.25 -1.375 -3.28125 -1.390625l-2.609375 0zm14.653381 12.5q-1.25 0 -2.265625 -0.625q-1.015625 -0.625 -1.59375 -1.71875q-0.5625 -1.109375 -0.5625 -2.484375l0 -0.390625q0 -1.421875 0.546875 -2.5625q0.5625 -1.140625 1.546875 -1.78125q0.984375 -0.65625 2.125 -0.65625q1.796875 0 2.84375 1.21875q1.0625 1.21875 1.0625 3.34375l0 0.609375l-7.03125 0l0 0.21875q0 1.671875 0.953125 2.796875q0.96875 1.109375 2.421875 1.109375q0.875 0 1.546875 -0.3125q0.671875 -0.328125 1.21875 -1.03125l0.6875 0.515625q-1.203125 1.75 -3.5 1.75zm-0.203125 -9.296875q-1.21875 0 -2.0625 0.90625q-0.84375 0.890625 -1.03125 2.421875l5.921875 0l0 -0.125q-0.046875 -1.421875 -0.8125 -2.3125q-0.765625 -0.890625 -2.015625 -0.890625zm11.934692 6.609375q0 -0.8125 -0.65625 -1.296875q-0.65625 -0.5 -1.96875 -0.78125q-1.3125 -0.28125 -2.03125 -0.640625q-0.71875 -0.359375 -1.078125 -0.875q-0.34375 -0.515625 -0.34375 -1.25q0 -1.171875 0.96875 -1.921875q0.984375 -0.765625 2.5 -0.765625q1.65625 0 2.640625 0.8125q1.0 0.8125 1.0 2.125l-1.09375 0q0 -0.875 -0.71875 -1.4375q-0.71875 -0.578125 -1.828125 -0.578125q-1.078125 0 -1.734375 0.484375q-0.640625 0.46875 -0.640625 1.234375q0 0.734375 0.53125 1.140625q0.546875 0.40625 1.984375 0.75q1.4375 0.328125 2.140625 0.71875q0.71875 0.375 1.0625 0.921875q0.359375 0.53125 0.359375 1.296875q0 1.25 -1.015625 2.0q-1.0 0.75 -2.625 0.75q-1.71875 0 -2.796875 -0.828125q-1.0625 -0.84375 -1.0625 -2.125l1.09375 0q0.0625 0.96875 0.796875 1.5q0.75 0.53125 1.96875 0.53125q1.140625 0 1.84375 -0.5q0.703125 -0.5 0.703125 -1.265625zm4.759033 2.5l-1.09375 0l0 -9.859375l1.09375 0l0 9.859375zm-1.28125 -12.703125q0 -0.3125 0.203125 -0.53125q0.203125 -0.21875 0.546875 -0.21875q0.34375 0 0.546875 0.21875q0.203125 0.21875 0.203125 0.53125q0 0.3125 -0.203125 0.515625q-0.203125 0.203125 -0.546875 0.203125q-0.34375 0 -0.546875 -0.203125q-0.203125 -0.203125 -0.203125 -0.515625zm3.8062744 7.6875q0 -2.3125 1.015625 -3.65625q1.03125 -1.359375 2.796875 -1.359375q2.015625 0 3.0625 1.59375l0.046875 -1.421875l1.015625 0l0 9.65625q0 1.90625 -1.0625 3.015625q-1.0625 1.109375 -2.890625 1.109375q-1.03125 0 -1.96875 -0.46875q-0.921875 -0.453125 -1.453125 -1.21875l0.609375 -0.65625q1.15625 1.421875 2.75 1.421875q1.359375 0 2.125 -0.8125q0.765625 -0.796875 0.796875 -2.21875l0 -1.25q-1.046875 1.46875 -3.0625 1.46875q-1.703125 0 -2.75 -1.359375q-1.03125 -1.375 -1.03125 -3.703125l0 -0.140625zm1.109375 0.1875q0 1.890625 0.75 2.984375q0.75 1.078125 2.125 1.078125q2.015625 0 2.859375 -1.796875l0 -4.59375q-0.390625 -0.9375 -1.109375 -1.4375q-0.71875 -0.5 -1.734375 -0.5q-1.375 0 -2.140625 1.078125q-0.75 1.078125 -0.75 3.1875zm10.707764 -5.03125l0.046875 1.6875q0.546875 -0.90625 1.375 -1.375q0.828125 -0.484375 1.84375 -0.484375q1.578125 0 2.34375 0.890625q0.78125 0.890625 0.796875 2.671875l0 6.46875l-1.09375 0l0 -6.484375q0 -1.3125 -0.5625 -1.953125q-0.546875 -0.65625 -1.75 -0.65625q-1.015625 0 -1.796875 0.640625q-0.78125 0.625 -1.15625 1.703125l0 6.75l-1.078125 0l0 -9.859375l1.03125 0z" fill-rule="nonzero"/><path fill="#000000" fill-opacity="0.0" d="m152.10498 35.33202l72.72441 0" fill-rule="evenodd"/><path stroke="#000000" stroke-width="1.0" stroke-linejoin="round" stroke-linecap="butt" d="m152.10498 35.33202l66.72441 0" fill-rule="evenodd"/><path fill="#000000" stroke="#000000" stroke-width="1.0" stroke-linecap="butt" d="m218.82939 36.983753l4.538101 -1.6517334l-4.538101 -1.6517296z" fill-rule="evenodd"/><path fill="#000000" fill-opacity="0.0" d="m369.95126 35.33202l72.724396 0" fill-rule="evenodd"/><path stroke="#000000" stroke-width="1.0" stroke-linejoin="round" stroke-linecap="butt" d="m369.95123 35.33202l66.72443 0" fill-rule="evenodd"/><path fill="#000000" stroke="#000000" stroke-width="1.0" stroke-linecap="butt" d="m436.67566 36.983753l4.538086 -1.6517334l-4.538086 -1.6517296z" fill-rule="evenodd"/><path fill="#000000" fill-opacity="0.0" d="m587.79755 35.33202l72.724365 0" fill-rule="evenodd"/><path stroke="#000000" stroke-width="1.0" stroke-linejoin="round" stroke-linecap="butt" d="m587.79755 35.33202l66.724365 0" fill-rule="evenodd"/><path fill="#000000" stroke="#000000" stroke-width="1.0" stroke-linecap="butt" d="m654.5219 36.983753l4.538147 -1.6517334l-4.538147 -1.6517296z" fill-rule="evenodd"/><path fill="#000000" fill-opacity="0.0" d="m261.0281 183.64174l72.72443 0" fill-rule="evenodd"/><path stroke="#000000" stroke-width="1.0" stroke-linejoin="round" stroke-linecap="butt" d="m261.0281 183.64174l66.72443 0" fill-rule="evenodd"/><path fill="#000000" stroke="#000000" stroke-width="1.0" stroke-linecap="butt" d="m327.75253 185.29347l4.538086 -1.6517334l-4.538086 -1.6517334z" fill-rule="evenodd"/><path fill="#000000" fill-opacity="0.0" d="m478.8744 183.64174l72.72443 0" fill-rule="evenodd"/><path stroke="#000000" stroke-width="1.0" stroke-linejoin="round" stroke-linecap="butt" d="m478.8744 183.64174l66.72443 0" fill-rule="evenodd"/><path fill="#000000" stroke="#000000" stroke-width="1.0" stroke-linecap="butt" d="m545.5988 185.29347l4.538086 -1.6517334l-4.538086 -1.6517334z" fill-rule="evenodd"/><path fill="#000000" fill-opacity="0.0" d="m696.72064 183.64174l72.72443 0" fill-rule="evenodd"/><path stroke="#000000" stroke-width="1.0" stroke-linejoin="round" stroke-linecap="butt" d="m696.72064 183.64174l66.72443 0" fill-rule="evenodd"/><path fill="#000000" stroke="#000000" stroke-width="1.0" stroke-linecap="butt" d="m763.44507 185.29347l4.538086 -1.6517334l-4.538086 -1.6517334z" fill-rule="evenodd"/></g></svg>